<?xml version="1.0" encoding="UTF-8"?>
<svg version="1.1" xmlns="http://www.w3.org/2000/svg" width="750" height="750">
<path d="M0 0 C1.18134114 0.81908095 2.36367585 1.63673032 3.546875 2.453125 C15.87622522 11.03049508 27.11168528 20.67736004 38 31 C38.75410156 31.7115625 39.50820313 32.423125 40.28515625 33.15625 C45.67245915 38.38289775 50.35221984 44.11487404 55 50 C55.80566406 51.01191406 56.61132812 52.02382812 57.44140625 53.06640625 C81.60566562 83.69695681 97.37214994 119.03994894 105.25 157.1875 C105.40114258 157.90945557 105.55228516 158.63141113 105.70800781 159.37524414 C108.54724136 174.01203783 109.38326795 188.74708009 109.3125 203.625 C109.31034485 204.44971802 109.3081897 205.27443604 109.30596924 206.12414551 C109.08021952 260.28059056 91.1345127 314.45616275 56.34570312 356.37792969 C55.00439266 357.99470522 53.68145145 359.62529292 52.359375 361.2578125 C42.42261404 373.39645899 31.4146529 384.39488665 19 394 C17.49373047 395.19689453 17.49373047 395.19689453 15.95703125 396.41796875 C-5.16660725 413.10925543 -28.62021189 425.95123283 -54 435 C-54.75877441 435.27392578 -55.51754883 435.54785156 -56.29931641 435.83007812 C-69.88213609 440.65306864 -83.80726569 443.59163807 -98 446 C-98.77649902 446.13422363 -99.55299805 446.26844727 -100.35302734 446.40673828 C-125.28983685 450.47606845 -153.2524272 449.59997534 -178 445 C-178.81871582 444.85546387 -179.63743164 444.71092773 -180.48095703 444.56201172 C-218.09014673 437.82236133 -253.81669638 421.2649655 -284 398 C-284.89074219 397.32324219 -285.78148437 396.64648438 -286.69921875 395.94921875 C-301.19767721 384.67263995 -314.79624374 371.53869467 -326 357 C-326.78165527 355.99235596 -326.78165527 355.99235596 -327.57910156 354.96435547 C-336.40802728 343.51095469 -344.2458271 331.79218121 -351 319 C-351.46003418 318.12923828 -351.92006836 317.25847656 -352.39404297 316.36132812 C-363.74183404 294.53533854 -371.61669006 271.20692788 -376 247 C-376.24339111 245.68008057 -376.24339111 245.68008057 -376.49169922 244.33349609 C-387.10207493 183.85763947 -373.06183831 118.0344616 -338.20703125 67.5 C-337.14263884 65.99671956 -336.07367831 64.49666234 -335 63 C-334.47583496 62.26394531 -333.95166992 61.52789062 -333.41162109 60.76953125 C-325.90114552 50.32740588 -317.56259514 40.84402791 -308.59326172 31.63574219 C-307.27241101 30.27967419 -305.96455264 28.91096522 -304.66015625 27.5390625 C-299.50740825 22.20718011 -293.83686986 17.55983769 -288 13 C-287.40123047 12.53013672 -286.80246094 12.06027344 -286.18554688 11.57617188 C-277.43011145 4.74461646 -268.51796028 -1.44031244 -258.86230469 -6.92773438 C-257.01662017 -7.99043055 -255.19933286 -9.09144983 -253.3828125 -10.203125 C-235.69020778 -20.84291151 -215.87116974 -27.67836394 -196 -33 C-195.30600098 -33.19287598 -194.61200195 -33.38575195 -193.89697266 -33.58447266 C-130.62152515 -51.00990802 -53.44038759 -38.33158691 0 0 Z M-135 -6 C-135.02694851 -4.04174127 -135.04637218 -2.08337774 -135.0625 -0.125 C-135.07410156 0.96554688 -135.08570313 2.05609375 -135.09765625 3.1796875 C-135.19744303 5.95177546 -135.19744303 5.95177546 -134 8 C-139.61 8 -145.22 8 -151 8 C-151.33 3.71 -151.66 -0.58 -152 -5 C-154.31 -5 -156.62 -5 -159 -5 C-159.15298709 6.37204047 -158.68416471 17.65019611 -158 29 C-155.69 29 -153.38 29 -151 29 C-151 24.05 -151 19.1 -151 14 C-146.1171875 14.04882812 -146.1171875 14.04882812 -141.234375 14.09765625 C-137.83633451 14.11006257 -137.83633451 14.11006257 -134 13 C-134 17.95 -134 22.9 -134 28 C-131.69 28 -129.38 28 -127 28 C-126.97056876 24.20835009 -126.9530581 20.41673021 -126.9375 16.625 C-126.92493164 15.03365234 -126.92493164 15.03365234 -126.91210938 13.41015625 C-126.8920576 6.87327796 -127.1941922 0.48825176 -128 -6 C-130.31 -6 -132.62 -6 -135 -6 Z M-118 -6 C-116.71675703 -1.47213457 -115.40627404 2.98725892 -113.65234375 7.359375 C-110.44031682 15.4118102 -109.41610399 21.43755224 -111 30 C-108.69 30.33 -106.38 30.66 -104 31 C-103.731875 29.989375 -103.46375 28.97875 -103.1875 27.9375 C-101.18993303 20.4082091 -97.83705519 15.13139083 -92.875 9.25 C-91.78525579 7.94587987 -90.69914993 6.63870848 -89.6171875 5.328125 C-89.13878418 4.7599707 -88.66038086 4.19181641 -88.16748047 3.60644531 C-86.79481722 1.88764573 -86.79481722 1.88764573 -86 -1 C-88.31 -1.33 -90.62 -1.66 -93 -2 C-96.86435321 2.88471613 -100.63737574 7.75430616 -104 13 C-105.92621075 9.58497133 -106.74219022 6.16479398 -107.6875 2.375 C-108.82641824 -2.06668426 -108.82641824 -2.06668426 -111.78125 -5.29296875 C-113.86290893 -5.86030612 -115.83460655 -6 -118 -6 Z M-179.73828125 -1.6875 C-180.80498047 -1.41679687 -181.87167969 -1.14609375 -182.97070312 -0.8671875 C-184.07349609 -0.58101562 -185.17628906 -0.29484375 -186.3125 0 C-187.43462891 0.28617188 -188.55675781 0.57234375 -189.71289062 0.8671875 C-192.47666378 1.57283171 -195.23891089 2.28393872 -198 3 C-197.67 4.65 -197.34 6.3 -197 8 C-191.555 7.505 -191.555 7.505 -186 7 C-185.82871582 7.78238037 -185.65743164 8.56476074 -185.48095703 9.37084961 C-184.70432772 12.89504763 -183.91484913 16.41624239 -183.125 19.9375 C-182.72087891 21.78504883 -182.72087891 21.78504883 -182.30859375 23.66992188 C-182.04433594 24.83974609 -181.78007812 26.00957031 -181.5078125 27.21484375 C-181.14647217 28.84087524 -181.14647217 28.84087524 -180.77783203 30.49975586 C-180.52114746 31.32483643 -180.26446289 32.14991699 -180 33 C-177.3333581 34.33332095 -175.83319697 33.67102033 -173 33 C-173.59609314 26.26483263 -174.85094023 19.97211055 -176.5625 13.4375 C-176.79646484 12.52419922 -177.03042969 11.61089844 -177.27148438 10.66992188 C-177.84222117 8.44521316 -178.4203366 6.22239953 -179 4 C-173.555 3.01 -173.555 3.01 -168 2 C-168.33 0.35 -168.66 -1.3 -169 -3 C-172.81865106 -3.14628512 -176.04241931 -2.63617044 -179.73828125 -1.6875 Z M-69.734375 8.7109375 C-70.75194571 9.92201126 -71.75650365 11.14410001 -72.75 12.375 C-73.53963135 13.32705322 -73.53963135 13.32705322 -74.34521484 14.29833984 C-75.90840708 16.18972135 -77.45491509 18.09381887 -79 20 C-79.82242187 20.99515625 -80.64484375 21.9903125 -81.4921875 23.015625 C-85.73901569 28.18853031 -85.73901569 28.18853031 -89 34 C-85.69432511 34.85387105 -85.69432511 34.85387105 -82 35 C-79.53827847 33.207809 -79.53827847 33.207809 -78 31 C-77.34773438 31.20496094 -76.69546875 31.40992188 -76.0234375 31.62109375 C-71.36525534 33.05702306 -66.84850242 34.36203916 -62 35 C-62.09765625 37.01822917 -62.1953125 39.03645833 -62.29296875 41.0546875 C-62.19628906 41.69664062 -62.09960938 42.33859375 -62 43 C-59.18490007 45.2773501 -59.18490007 45.2773501 -56 45 C-54.96669753 32.98785879 -54.88682773 21.05023529 -55 9 C-56.24663331 8.49166409 -57.49749387 7.99368855 -58.75 7.5 C-59.79414063 7.08234375 -59.79414063 7.08234375 -60.859375 6.65625 C-65.13804644 5.34454051 -66.54822819 5.55210052 -69.734375 8.7109375 Z M-226.9375 13.9375 C-229.6068254 16.59867213 -229.6068254 16.59867213 -231 20 C-230.92225715 24.27585689 -230.39465123 26.45445271 -227.875 29.9375 C-224.2114416 32.56570494 -222.43629316 32.53541469 -218 32 C-215.66359824 31.34416793 -213.33010909 30.67784992 -211 30 C-207.625 29.8125 -207.625 29.8125 -205 30 C-204 31 -204 31 -203.6875 33.375 C-204 36 -204 36 -205.69140625 37.65234375 C-208.45461724 39.2653857 -210.07919604 39.31266331 -213.25 39.1875 C-214.14203125 39.16042969 -215.0340625 39.13335937 -215.953125 39.10546875 C-216.62859375 39.07066406 -217.3040625 39.03585938 -218 39 C-218 38.34 -218 37.68 -218 37 C-220.31 37.66 -222.62 38.32 -225 39 C-223.66035678 41.54532213 -222.57229129 43.57078153 -220.25 45.3125 C-214.80310011 46.97683052 -210.83755414 46.15521737 -205.8125 43.75 C-200.80577473 41.02597622 -197.67821856 39.28898765 -196 33.625 C-196 29.11580097 -197.08796238 27.38425994 -200 24 C-202.41048964 22.38263921 -203.59538778 21.96670117 -206.515625 22.20703125 C-207.41796875 22.40683594 -208.3203125 22.60664063 -209.25 22.8125 C-213.83524085 23.76647628 -218.34757554 24.47331044 -223 25 C-223.48192771 19.57831325 -223.48192771 19.57831325 -221.4375 17.125 C-217.59255203 15.35040863 -213.85981988 15.46862289 -209.8125 16.625 C-207.32641484 17.13936245 -206.11521237 16.28423608 -204 15 C-205.03538614 12.17621961 -205.66619755 11.1756855 -208.375 9.75 C-215.01176026 7.85378278 -221.3703194 10.26552982 -226.9375 13.9375 Z M-41 27 C-42.30597739 30.18331988 -42.12735264 31.58155562 -41.125 34.875 C-38.57988535 38.61781566 -35.68468884 40.67877792 -31.9609375 43.19140625 C-29.55641831 45.40912016 -29.2193937 46.77700208 -29 50 C-29.33 50.66 -29.66 51.32 -30 52 C-34.59334282 52.32046578 -37.43810319 52.05305441 -41 49 C-41.73687515 46.22254752 -42 43.85864695 -42 41 C-43.98 40.01 -45.96 39.02 -48 38 C-49.54983261 39.54983261 -49.28132961 41.03668378 -49.375 43.1875 C-49.30500001 47.2029539 -48.61428302 49.67623705 -45.68359375 52.6484375 C-41.23828476 56.21706142 -36.96345801 58.66721051 -31.3125 59.625 C-26.85083806 58.78317699 -25.19340035 57.19340035 -22 54 C-20.52103139 51.04206277 -20.5644418 49.29779776 -21 46 C-23.48099241 42.10252404 -26.72121725 39.150135 -30.375 36.375 C-33 34 -33 34 -33.375 31.1875 C-33.25125 30.465625 -33.1275 29.74375 -33 29 C-30.16252291 27.79952893 -28.93646701 28.01944887 -25.9375 28.9375 C-22.36677079 31.44460775 -22.01200904 33.17631068 -20.7890625 37.19140625 C-20.08204475 39.309882 -20.08204475 39.309882 -17.3125 40.5 C-16.549375 40.665 -15.78625 40.83 -15 41 C-14.04006424 37.00026765 -13.66671886 34.74230798 -15.375 30.9375 C-19.87990284 25.8962992 -24.75817168 21.72103755 -31.75 21.3125 C-36.25784828 21.64349585 -38.35731325 23.28372176 -41 27 Z M-262 35 C-259.03 46.55 -256.06 58.1 -253 70 C-251.35 69.34 -249.7 68.68 -248 68 C-247.05495565 65.3102584 -246.9484457 63.39954579 -247.3125 60.578125 C-247 58 -247 58 -244.76953125 55.91015625 C-243.30580078 54.99556641 -243.30580078 54.99556641 -241.8125 54.0625 C-240.36810547 53.12083984 -240.36810547 53.12083984 -238.89453125 52.16015625 C-236 51 -236 51 -233.38671875 51.80859375 C-232.59910156 52.20175781 -231.81148437 52.59492188 -231 53 C-226.95377498 53.36980013 -226.95377498 53.36980013 -224 51 C-225.33673832 46.98978505 -227.95957469 45.65530703 -231.3125 43.375 C-232.58564518 42.49103589 -233.8577612 41.60558789 -235.12890625 40.71875 C-236.09594482 40.04585937 -236.09594482 40.04585937 -237.08251953 39.359375 C-241.031047 36.56011336 -244.84254494 33.57621527 -248.671875 30.6171875 C-254.30347044 26.70530744 -255.11357063 30.40904709 -262 35 Z M-5.35546875 42.34375 C-6.30529797 43.39058306 -7.2489568 44.44303658 -8.1875 45.5 C-8.67927734 46.04591797 -9.17105469 46.59183594 -9.67773438 47.15429688 C-11.12457522 48.76421545 -12.56333988 50.38099654 -14 52 C-14.71800781 52.804375 -15.43601562 53.60875 -16.17578125 54.4375 C-18.92136067 57.54170971 -21.54042139 60.66200046 -24 64 C-22.47790339 67.72913668 -20.25967803 69.80631179 -17.25 72.4375 C-16.36054688 73.21867187 -15.47109375 73.99984375 -14.5546875 74.8046875 C-11.72692811 77.2346581 -8.88899364 79.6431894 -6 82 C-2.87802522 80.6910428 -2.87802522 80.6910428 -1 78 C-1.75925781 77.39671875 -2.51851563 76.7934375 -3.30078125 76.171875 C-4.29464844 75.37265625 -5.28851563 74.5734375 -6.3125 73.75 C-7.29863281 72.96109375 -8.28476562 72.1721875 -9.30078125 71.359375 C-11.6018547 69.34801702 -13.30605396 67.5206842 -15 65 C-13.68 63.35 -12.36 61.7 -11 60 C-6.87019644 60.52823069 -4.81786764 62.75579489 -1.875 65.5625 C1.088829 68.8616016 1.088829 68.8616016 5 70 C5.66 68.68 6.32 67.36 7 66 C5.21371169 64.32722165 3.4214925 62.66175557 1.625 61 C1.11710937 60.52304688 0.60921875 60.04609375 0.0859375 59.5546875 C-2.52862765 56.83882286 -2.52862765 56.83882286 -6 56 C-4.35 53.69 -2.7 51.38 -1 49 C4.54110713 52.40991208 9.20968493 56.61420043 14 61 C14.99 60.01 15.98 59.02 17 58 C15.42882367 54.03071242 12.84553306 51.80334193 9.6875 49 C8.74261719 48.154375 7.79773438 47.30875 6.82421875 46.4375 C1.04165745 40.15772387 1.04165745 40.15772387 -5.35546875 42.34375 Z M-281 49 C-282.35827971 50.64639965 -283.69254251 52.31295807 -285 54 C-283.93072266 55.35931641 -283.93072266 55.35931641 -282.83984375 56.74609375 C-277.54192526 63.48351307 -272.25089488 70.22580797 -267 77 C-270.44052091 75.7001376 -273.55536345 74.19364391 -276.72265625 72.328125 C-277.59083984 71.82925781 -278.45902344 71.33039063 -279.35351562 70.81640625 C-281.16923125 69.76651156 -282.97911911 68.70647711 -284.78320312 67.63671875 C-285.65009766 67.14300781 -286.51699219 66.64929688 -287.41015625 66.140625 C-288.19527588 65.68204102 -288.98039551 65.22345703 -289.78930664 64.75097656 C-291.99998547 63.74616005 -291.99998547 63.74616005 -294.1940918 64.77197266 C-296.08868283 66.06030481 -297.34123805 67.32491529 -298.75 69.125 C-299.4925 70.07375 -300.235 71.0225 -301 72 C-295.69417649 80.26096572 -289.83947032 88.11359791 -284 96 C-292.89687136 91.69821605 -301.46627358 86.97379913 -310 82 C-311.32 83.65 -312.64 85.3 -314 87 C-309.27174962 91.15604173 -303.89587567 94.05396317 -298.4375 97.125 C-297.49197266 97.66253906 -296.54644531 98.20007813 -295.57226562 98.75390625 C-291.74642402 100.92233379 -287.93479184 103.03260408 -284 105 C-280.04 100.545 -280.04 100.545 -276 96 C-278.98974381 90.47768194 -282.43823556 85.54606284 -286.25 80.5625 C-287.08144531 79.46518555 -287.08144531 79.46518555 -287.9296875 78.34570312 C-289.28281174 76.56097892 -290.63961235 74.77918996 -292 73 C-289.17157673 73.94280776 -287.03165037 75.0699784 -284.47265625 76.57421875 C-283.16071289 77.32735352 -283.16071289 77.32735352 -281.82226562 78.09570312 C-279.98025127 79.15815302 -278.14426901 80.2311293 -276.31445312 81.31445312 C-275.43853516 81.81267578 -274.56261719 82.31089844 -273.66015625 82.82421875 C-272.46338257 83.52164185 -272.46338257 83.52164185 -271.24243164 84.2331543 C-269.00723479 85.25618135 -269.00723479 85.25618135 -266.81518555 84.23022461 C-264.89351175 82.92782861 -263.35380037 81.55170039 -261.75 79.875 C-260.8425 78.92625 -259.935 77.9775 -259 77 C-260.72059951 72.98526781 -263.41738414 69.75516749 -266.125 66.375 C-266.61274902 65.76124512 -267.10049805 65.14749023 -267.60302734 64.51513672 C-268.59324825 63.26998178 -269.58493811 62.02599356 -270.578125 60.78320312 C-271.88224555 59.14767832 -273.17602298 57.50392013 -274.46875 55.859375 C-275.1803125 54.95703125 -275.891875 54.0546875 -276.625 53.125 C-277.25664062 52.32320313 -277.88828125 51.52140625 -278.5390625 50.6953125 C-279.02117187 50.13585937 -279.50328125 49.57640625 -280 49 C-280.33 49 -280.66 49 -281 49 Z M24 64 C22.68 65.32 21.36 66.64 20 68 C20.66708984 68.70576172 20.66708984 68.70576172 21.34765625 69.42578125 C21.91355469 70.04839844 22.47945312 70.67101562 23.0625 71.3125 C23.63097656 71.92738281 24.19945312 72.54226562 24.78515625 73.17578125 C25.18605469 73.77777344 25.58695313 74.37976563 26 75 C24.61973033 79.14080902 21.67628399 80.83758904 18.3125 83.375 C17.07875931 84.31944082 15.84568084 85.26474736 14.61328125 86.2109375 C14.01209473 86.67081055 13.4109082 87.13068359 12.79150391 87.60449219 C10.13801616 89.67144993 7.56917578 91.82942138 5 94 C5.99 95.65 6.98 97.3 8 99 C11.31169761 98.39874738 13.19058133 97.28940727 15.75 95.12890625 C16.4409375 94.55462891 17.131875 93.98035156 17.84375 93.38867188 C18.91109375 92.4847168 18.91109375 92.4847168 20 91.5625 C21.41376106 90.37284055 22.83033742 89.18651696 24.25 88.00390625 C25.18585938 87.21222046 25.18585938 87.21222046 26.140625 86.40454102 C28 85 28 85 32 83 C33.98 85.31 35.96 87.62 38 90 C39.65 89.34 41.3 88.68 43 88 C37.69354731 79.33503295 31.18977524 71.18977524 24 64 Z M-142 67 C-143.96138387 69.58546056 -144.01298264 70.78795025 -143.8125 74.0625 C-143.28707605 76.98597392 -143.28707605 76.98597392 -141.4921875 78.359375 C-139.46733162 80.58565634 -139.50508034 82.22176274 -139.3125 85.1875 C-139.24675781 86.08855469 -139.18101562 86.98960937 -139.11328125 87.91796875 C-139.05720703 88.94857422 -139.05720703 88.94857422 -139 90 C-147.85277898 87.3756106 -155.55004279 84.52202827 -163.31640625 79.35546875 C-166.61494332 77.68939544 -168.33950622 77.47837964 -172 78 C-174.62482967 79.21877382 -176.9744284 80.45450354 -179.4375 81.9375 C-180.13270752 82.3406543 -180.82791504 82.74380859 -181.54418945 83.15917969 C-185.03642486 85.19536263 -188.48752918 87.29366838 -191.921875 89.42578125 C-204.76635248 97.38240538 -217.1101946 101.64897809 -232 104 C-232 104.33 -232 104.66 -232 105 C-228.4201548 105.81862159 -225.10762899 106.13520898 -221.4375 106.125 C-220.50808594 106.12757813 -219.57867187 106.13015625 -218.62109375 106.1328125 C-216.25852524 106.01309964 -214.25969237 105.66993233 -212 105 C-212 105.66 -212 106.32 -212 107 C-208.47945926 107.07184777 -205.16920328 107.02590863 -201.68359375 106.4921875 C-198.07697301 106.01028484 -194.75829249 105.97107141 -191.125 106.0625 C-183.80071125 106.15312075 -176.5497445 105.70175252 -169.25 105.125 C-167.70723389 105.00717163 -167.70723389 105.00717163 -166.13330078 104.88696289 C-160.96130848 104.45672124 -155.81081188 103.90719723 -150.671875 103.1796875 C-149.28887207 102.98608643 -149.28887207 102.98608643 -147.87792969 102.78857422 C-144.13586765 101.8916501 -144.13586765 101.8916501 -138 98 C-138 115.16 -138 132.32 -138 150 C-142.95 148.35 -147.9 146.7 -153 145 C-155.65728656 144.2572515 -158.32184145 143.53856161 -161 142.875 C-165.94956845 141.6484622 -170.44208239 140.27044464 -175 138 C-176.1875 135.125 -176.1875 135.125 -176 132 C-173.89971854 128.62454766 -172.79797116 127.26599039 -169 126 C-166.77204 125.87260712 -164.54250336 125.77187851 -162.3125 125.6875 C-156.14087759 125.28541912 -152.16769208 124.37887559 -147 121 C-146.34 120.01 -145.68 119.02 -145 118 C-150.45211415 115.10437957 -155.78097141 113.16610653 -162 113 C-170.23279817 115.89704558 -178.53521999 121.31321379 -183 129 C-184.31069316 133.46344158 -183.85356809 136.5021407 -182.23828125 140.79296875 C-177.9087096 148.50971317 -167.93975347 150.697579 -159.9765625 152.96484375 C-155.03906811 154.2936211 -150.06226155 155.28141626 -145 156 C-145 156.66 -145 157.32 -145 158 C-145.59425781 158.23847656 -146.18851562 158.47695313 -146.80078125 158.72265625 C-149.46660288 160.27101091 -150.53546457 161.85115147 -152.1875 164.4375 C-152.69667969 165.21996094 -153.20585937 166.00242187 -153.73046875 166.80859375 C-156.97097345 172.40220341 -156.91707416 178.73579182 -156 185 C-153.36462192 189.68431214 -149.40534551 192.99635533 -145 196 C-144.34 196 -143.68 196 -143 196 C-143.721875 196.70125 -144.44375 197.4025 -145.1875 198.125 C-152.69608854 205.53811255 -152.69608854 205.53811255 -155.375 215.375 C-155.21035174 220.97304071 -153.08233994 223.93939639 -149.12890625 227.8515625 C-145.56898204 231.12211668 -142.5980576 233.36868913 -138 235 C-138.44472656 235.68707031 -138.88945312 236.37414062 -139.34765625 237.08203125 C-139.91355469 237.98308594 -140.47945313 238.88414062 -141.0625 239.8125 C-141.63097656 240.70582031 -142.19945312 241.59914063 -142.78515625 242.51953125 C-144.37738771 245.03661817 -144.37738771 245.03661817 -143 248 C-142.66226563 247.50628906 -142.32453125 247.01257813 -141.9765625 246.50390625 C-141.53054688 245.86324219 -141.08453125 245.22257813 -140.625 244.5625 C-139.96371094 243.60537109 -139.96371094 243.60537109 -139.2890625 242.62890625 C-138 241 -138 241 -136 240 C-136 245.28 -136 250.56 -136 256 C-135.34 256 -134.68 256 -134 256 C-134 250.72 -134 245.44 -134 240 C-132.35 241.65 -130.7 243.3 -129 245 C-128.34 245.33 -127.68 245.66 -127 246 C-128.22527029 241.94718288 -129.69880494 238.55639236 -132 235 C-131.4225 234.72800781 -130.845 234.45601562 -130.25 234.17578125 C-124.00319822 230.91139352 -118.19841784 226.39683568 -115 220 C-114.12537682 213.97759464 -115.0185351 209.77127251 -118.4921875 204.7890625 C-120.73756777 202.12485482 -123.24543776 200.12852537 -126 198 C-126.33 197.34 -126.66 196.68 -127 196 C-126.319375 195.814375 -125.63875 195.62875 -124.9375 195.4375 C-120.14692432 193.09317573 -116.25432568 189.79928779 -114.0390625 184.85546875 C-112.2586096 178.25391935 -113.12802261 172.49764196 -116.3359375 166.50390625 C-118.8270081 162.55233487 -120.58514654 159.82518833 -125 158 C-125 157.34 -125 156.68 -125 156 C-124.05640625 155.82984375 -123.1128125 155.6596875 -122.140625 155.484375 C-103.18441956 152.34873493 -103.18441956 152.34873493 -88.0625 141.5625 C-86.21450628 137.10557397 -85.64832955 134.28945833 -86.9375 129.5625 C-89.22333837 124.90882008 -92.89179438 122.02637814 -97 119 C-97.7940625 118.36835938 -98.588125 117.73671875 -99.40625 117.0859375 C-103.76097657 114.10845879 -107.00100873 112.61227132 -112.26171875 113.51953125 C-116.26339944 114.43048654 -120.12680242 115.64899758 -124 117 C-124 117.99 -124 118.98 -124 120 C-117.46725853 124.93584911 -112.4112623 125.20209345 -104.4453125 125.5234375 C-100.81761746 126.02522752 -98.89948439 126.80719997 -96 129 C-93.70986347 132.4352048 -93.82157027 133.985331 -94 138 C-97.75432579 139.58003283 -101.51602354 140.77789329 -105.4375 141.875 C-106.66210938 142.22046875 -107.88671875 142.5659375 -109.1484375 142.921875 C-111.71614583 143.640625 -114.28385417 144.359375 -116.8515625 145.078125 C-118.07617188 145.42359375 -119.30078125 145.7690625 -120.5625 146.125 C-121.67753906 146.43695313 -122.79257812 146.74890625 -123.94140625 147.0703125 C-126.67607185 147.90153908 -129.34622365 148.93848946 -132 150 C-132 132.84 -132 115.68 -132 98 C-129.69 99.32 -127.38 100.64 -125 102 C-122.17394915 102.84401224 -122.17394915 102.84401224 -119.3515625 103.1796875 C-117.79743652 103.39963379 -117.79743652 103.39963379 -116.21191406 103.62402344 C-110.9391082 104.24124151 -105.66943516 104.7356152 -100.375 105.125 C-99.252146 105.21064209 -98.12929199 105.29628418 -96.97241211 105.38452148 C-89.41840411 105.92405499 -81.91495528 106.17908813 -74.34326172 106.01416016 C-71.24557268 105.9507288 -68.97108231 106.00963923 -66 107 C-60.85056722 107.4017339 -60.85056722 107.4017339 -56 106 C-52.74992201 105.92905696 -49.51183871 106.00320477 -46.26171875 106.0625 C-43.35116267 106.00672887 -40.82115634 105.67750096 -38 105 C-38 104.67 -38 104.34 -38 104 C-39.06476563 103.85304688 -40.12953125 103.70609375 -41.2265625 103.5546875 C-60.4893561 100.68404834 -75.12934299 91.61795151 -91.47314453 81.50878906 C-96.29686428 78.62853901 -99.22696218 77.24288029 -105 78 C-107.32245709 79.3295851 -109.43918443 80.84135068 -111.609375 82.40625 C-117.74181089 86.4945406 -124.87407906 88.41646201 -132 90 C-131.74379316 88.3934324 -131.46944129 86.7897517 -131.1875 85.1875 C-131.03667969 84.29417969 -130.88585937 83.40085937 -130.73046875 82.48046875 C-129.93318249 79.77310632 -129.06474298 78.84138028 -127 77 C-125.71720825 73.60976467 -125.90697415 72.24970095 -127.1875 68.8125 C-129.03058173 65.9525456 -129.80343492 64.96865608 -133 64 C-137.32590054 64 -138.60584987 64.49904727 -142 67 Z M37.6875 100.6875 C36.83220703 101.12255859 35.97691406 101.55761719 35.09570312 102.00585938 C27.1905024 106.05892961 27.1905024 106.05892961 22.1171875 113.10546875 C21.34129435 119.775647 23.29318087 124.47455379 27 130 C29.53097969 132.66077352 31.28094844 133.73244593 34.6875 135 C44.5832747 135 54.52529014 127.65544062 63 123 C62.01 121.02 61.02 119.04 60 117 C54.21191492 118.70929388 49.17107468 121.42612299 43.921875 124.34179688 C40.51555279 126.13271628 38.5434184 127.0150775 34.62109375 126.90625 C32 126 32 126 30.0625 123.3125 C28.85339591 119.5429402 28.89915368 117.77371472 30 114 C32.13305664 112.21728516 32.13305664 112.21728516 34.91015625 110.7890625 C35.89951172 110.26699219 36.88886719 109.74492187 37.90820312 109.20703125 C39.46958008 108.42392578 39.46958008 108.42392578 41.0625 107.625 C42.10728516 107.07972656 43.15207031 106.53445313 44.22851562 105.97265625 C46.80974597 104.6290021 49.3996015 103.306061 52 102 C51.01 100.02 50.02 98.04 49 96 C44.96479511 96 41.19538067 98.84879675 37.6875 100.6875 Z M-324.41796875 105.0234375 C-328.0171398 109.5201796 -329.95408788 114.5666574 -330.0625 120.3125 C-328.62028349 123.96045941 -327.18909426 125.69299564 -324 128 C-319.86576019 128.90171237 -319.86576019 128.90171237 -316 128 C-312.29087123 124.87652314 -309.66799762 120.9716329 -306.9375 117 C-305 115 -305 115 -301.75 114.6875 C-300.8425 114.790625 -299.935 114.89375 -299 115 C-299.34353631 123.03874959 -299.34353631 123.03874959 -301.75 126.5625 C-304 128 -304 128 -306.5625 127.9375 C-307.366875 127.958125 -308.17125 127.97875 -309 128 C-310.81883009 130.3832946 -312 131.95818337 -312 135 C-307.13519331 135.48648067 -303.96453311 135.58235961 -299.6875 133 C-294.80686464 128.20070857 -292.1286456 121.81821697 -292 115 C-293.57564499 111.35113792 -295.46749662 108.86437678 -299 107 C-302.96852251 106.49491532 -305.16104998 106.50062499 -308.625 108.5625 C-313.78225673 113.5674224 -313.78225673 113.5674224 -316 120 C-317.99954746 120.04254356 -320.00041636 120.04080783 -322 120 C-322.33 119.67 -322.66 119.34 -323 119 C-322.64641555 111.69258809 -322.64641555 111.69258809 -320.25 109.125 C-318 108 -318 108 -315.3125 107.125 C-314.549375 106.75375 -313.78625 106.3825 -313 106 C-312.10613836 103.45224694 -312.10613836 103.45224694 -312 101 C-317.6127843 100.31272029 -320.44463503 101.23845595 -324.41796875 105.0234375 Z M-127 246 C-126 249 -126 249 -126 249 Z M-145 248 C-145 249.65 -145 251.3 -145 253 C-144.67 253 -144.34 253 -144 253 C-144 251.35 -144 249.7 -144 248 C-144.33 248 -144.66 248 -145 248 Z M-126 249 C-125 252 -125 252 -125 252 Z M-310 295 C-310 295.33 -310 295.66 -310 296 C-194.5 296 -79 296 40 296 C40 295.67 40 295.34 40 295 C-75.5 295 -191 295 -310 295 Z M-216 311 C-216 314.96 -216 318.92 -216 323 C-215.67 323 -215.34 323 -215 323 C-214.67 319.04 -214.34 315.08 -214 311 C-214.66 311 -215.32 311 -216 311 Z M-205 311 C-204.67 314.96 -204.34 318.92 -204 323 C-203.67 323 -203.34 323 -203 323 C-203 319.04 -203 315.08 -203 311 C-203.66 311 -204.32 311 -205 311 Z M-180 311 C-180 314.96 -180 318.92 -180 323 C-179.67 323 -179.34 323 -179 323 C-179 319.04 -179 315.08 -179 311 C-179.33 311 -179.66 311 -180 311 Z M-171 311 C-171.33 314.96 -171.66 318.92 -172 323 C-171.34 323 -170.68 323 -170 323 C-170 319.04 -170 315.08 -170 311 C-170.33 311 -170.66 311 -171 311 Z M-129 311 C-129 314.96 -129 318.92 -129 323 C-126.03 323 -123.06 323 -120 323 C-120 322.67 -120 322.34 -120 322 C-122.64 322 -125.28 322 -128 322 C-128 318.37 -128 314.74 -128 311 C-128.33 311 -128.66 311 -129 311 Z M-114 311 C-114 314.96 -114 318.92 -114 323 C-113.67 323 -113.34 323 -113 323 C-112.67 319.04 -112.34 315.08 -112 311 C-112.66 311 -113.32 311 -114 311 Z M-103 311 C-102.67 314.96 -102.34 318.92 -102 323 C-101.67 323 -101.34 323 -101 323 C-101 319.04 -101 315.08 -101 311 C-101.66 311 -102.32 311 -103 311 Z M-79 311 C-79 314.96 -79 318.92 -79 323 C-78.67 323 -78.34 323 -78 323 C-78 319.04 -78 315.08 -78 311 C-78.33 311 -78.66 311 -79 311 Z M-70 311 C-70.33 314.96 -70.66 318.92 -71 323 C-70.34 323 -69.68 323 -69 323 C-69 319.04 -69 315.08 -69 311 C-69.33 311 -69.66 311 -70 311 Z M-59 311 C-59 314.96 -59 318.92 -59 323 C-58.67 323 -58.34 323 -58 323 C-58 319.04 -58 315.08 -58 311 C-58.33 311 -58.66 311 -59 311 Z M-270 312 C-270 313.98 -270 315.96 -270 318 C-271.65 318 -273.3 318 -275 318 C-275 318.66 -275 319.32 -275 320 C-273.35 320 -271.7 320 -270 320 C-270 321.65 -270 323.3 -270 325 C-269.34 325.33 -268.68 325.66 -268 326 C-268 324.02 -268 322.04 -268 320 C-266.35 320 -264.7 320 -263 320 C-263 319.34 -263 318.68 -263 318 C-264.65 318 -266.3 318 -268 318 C-268 316.02 -268 314.04 -268 312 C-268.66 312 -269.32 312 -270 312 Z M-104 312 C-103 314 -103 314 -103 314 Z M-2 312 C-2 313.98 -2 315.96 -2 318 C-3.65 318 -5.3 318 -7 318 C-7.33 318.66 -7.66 319.32 -8 320 C-6.02 320 -4.04 320 -2 320 C-2 321.98 -2 323.96 -2 326 C-1.34 325.67 -0.68 325.34 0 325 C0 323.35 0 321.7 0 320 C1.65 320 3.3 320 5 320 C5 319.34 5 318.68 5 318 C3.35 318 1.7 318 0 318 C0 316.35 0 314.7 0 313 C-0.66 312.67 -1.32 312.34 -2 312 Z M-161 314 C-160 316 -160 316 -160 316 Z M-157 314 C-156 316 -156 316 -156 316 Z M-147 314 C-147 315.65 -147 317.3 -147 319 C-146.67 319 -146.34 319 -146 319 C-146 317.35 -146 315.7 -146 314 C-146.33 314 -146.66 314 -147 314 Z M-212 317 C-211 319 -211 319 -211 319 Z M-195 317 C-194 319 -194 319 -194 319 Z M-189 317 C-188 319 -188 319 -188 319 Z M-162 317 C-161 319 -161 319 -161 319 Z M-156 317 C-155 319 -155 319 -155 319 Z M-142 317 C-142 317.33 -142 317.66 -142 318 C-140.02 318 -138.04 318 -136 318 C-136 317.67 -136 317.34 -136 317 C-137.98 317 -139.96 317 -142 317 Z M-110 317 C-109 319 -109 319 -109 319 Z M-74 317 C-73 319 -73 319 -73 319 Z M-188 319 C-187 321 -187 321 -187 321 Z M-155 319 C-154 321 -154 321 -154 321 Z M-211 320 C-210 322 -210 322 -210 322 Z M-109 320 C-108 322 -108 322 -108 322 Z M-94 322 C-94 322.33 -94 322.66 -94 323 C-91.36 323 -88.72 323 -86 323 C-86 322.67 -86 322.34 -86 322 C-88.64 322 -91.28 322 -94 322 Z M-310 342 C-310 342.33 -310 342.66 -310 343 C-194.5 343 -79 343 40 343 C40 342.67 40 342.34 40 342 C-75.5 342 -191 342 -310 342 Z " fill="#0F696A" transform="translate(510,171)"/>
<path d="M0 0 C5.62996896 2.25198758 8.05339421 4.72400489 11.12109375 9.88671875 C12.75359864 13.81198606 12.52813479 17.83586029 12 22 C9.12168326 27.51677375 6.05505329 27.97247335 0 31 C0 20.77 0 10.54 0 0 Z " fill="#116869" transform="translate(377,332)"/>
<path d="M0 0 C0 10.23 0 20.46 0 31 C-9.88235294 26.05882353 -9.88235294 26.05882353 -12 22 C-12.96488422 16.6793527 -12.58131229 12.31270436 -9.8125 7.625 C-4.37930162 0 -4.37930162 0 0 0 Z " fill="#156667" transform="translate(373,332)"/>
<path d="M0 0 C6.87300342 3.43650171 10.56902497 6.25220825 13.3125 13.4375 C12.8403818 18.81964749 9.74977923 21.34535259 6 25 C5.2575 25.825 4.515 26.65 3.75 27.5 C2 29 2 29 -1 29 C-0.67 19.43 -0.34 9.86 0 0 Z " fill="#0F696A" transform="translate(377,373)"/>
<path d="M0 0 C0.33 9.57 0.66 19.14 1 29 C-4.93115551 27.51721112 -8.22639589 23.69232865 -12 19 C-13.32179972 15.03460085 -13.50459727 13.29303052 -12 9.4375 C-4.25641026 0 -4.25641026 0 0 0 Z " fill="#116867" transform="translate(373,373)"/>
<path d="M0 0 C0.33 0.66 0.66 1.32 1 2 C0.40625 3.734375 0.40625 3.734375 -0.5 5.75 C-1.99948261 9.56435209 -2.36121953 12.00708938 -1 16 C0.43661311 18.52006844 0.43661311 18.52006844 3 20 C7.10633371 20.74309151 7.10633371 20.74309151 11 20 C14.02887996 17.53594614 16.06522144 14.35183362 18.26953125 11.1640625 C19.5 9.5 19.5 9.5 22 7 C25.3125 7.125 25.3125 7.125 28 8 C29.11245962 11.80090369 29.22028304 14.28446191 27.5 17.8125 C25.59552753 20.81851404 25.117293 20.96707565 21.4375 22 C18 22 18 22 15 21 C15.33 20.34 15.66 19.68 16 19 C14.7934375 20.0209375 14.7934375 20.0209375 13.5625 21.0625 C10.02266654 23.41120466 7.23326925 23.34667897 3.1171875 22.6953125 C-0.10395917 21.63744514 -1.85185113 19.5387214 -4 17 C-4.66 17 -5.32 17 -6 17 C-5.34 13.7 -4.68 10.4 -4 7 C-4.66 6.67 -5.32 6.34 -6 6 C-4.625 4.5 -4.625 4.5 -3 3 C-2.34 3 -1.68 3 -1 3 C-0.67 2.01 -0.34 1.02 0 0 Z " fill="#13686A" transform="translate(183,278)"/>
<path d="M0 0 C4.87072783 4.56630734 8.89156398 9.74976539 13 15 C10 16 10 16 7.61157227 14.88842773 C6.68916748 14.32583252 5.7667627 13.7632373 4.81640625 13.18359375 C3.80642578 12.58482422 2.79644531 11.98605469 1.75585938 11.36914062 C-0.37192188 10.08206071 -2.49693471 8.79039286 -4.61914062 7.49414062 C-5.63041016 6.89666016 -6.64167969 6.29917969 -7.68359375 5.68359375 C-8.60712646 5.12212646 -9.53065918 4.56065918 -10.48217773 3.98217773 C-12.92080536 2.7299303 -12.92080536 2.7299303 -15.16040039 3.66821289 C-17.72015591 5.52136039 -19.83094506 7.71044201 -22 10 C-21.49581669 6.26904354 -20.84631029 4.47505242 -18 2 C-18 1.67 -18 1.34 -18 1 C-10.62686567 0.71641791 -10.62686567 0.71641791 -7 3 C-6.34 3.33 -5.68 3.66 -5 4 C-5 4.66 -5 5.32 -5 6 C-3.02 5.01 -1.04 4.02 1 3 C0.67 2.01 0.34 1.02 0 0 Z " fill="#196465" transform="translate(231,233)"/>
<path d="M0 0 C0.66 0 1.32 0 2 0 C2 5.94 2 11.88 2 18 C-7.75 15.25 -7.75 15.25 -10 13 C-8.38247153 10.82737873 -6.75661363 8.66200042 -5.125 6.5 C-4.66480469 5.87996094 -4.20460938 5.25992188 -3.73046875 4.62109375 C-2.53437826 3.04364108 -1.27143274 1.51738202 0 0 Z " fill="#106464" transform="translate(446,183)"/>
<path d="M0 0 C4.10110762 1.40398279 6.98089159 3.37087038 10.3125 6.125 C11.19550781 6.84945312 12.07851563 7.57390625 12.98828125 8.3203125 C13.65214844 8.87460938 14.31601562 9.42890625 15 10 C11.87378374 13.39417765 9.43458973 15.6062718 5 17 C2.75519358 11.38798394 1.16651426 5.92863717 0 0 Z " fill="#106767" transform="translate(255,207)"/>
<path d="M0 0 C1.98 0.99 1.98 0.99 4 2 C3.01 2 2.02 2 1 2 C1.33 17.51 1.66 33.02 2 49 C3.98 48.01 5.96 47.02 8 46 C13.9425615 44.41926174 19.86500791 43.72733369 26 44 C23.21325108 45.85783261 21.3476866 46.61251226 18.18359375 47.5078125 C17.25482422 47.77207031 16.32605469 48.03632813 15.36914062 48.30859375 C14.40169922 48.57800781 13.43425781 48.84742188 12.4375 49.125 C11.46619141 49.40214844 10.49488281 49.67929687 9.49414062 49.96484375 C2.28086515 52 2.28086515 52 0 52 C0 34.84 0 17.68 0 0 Z " fill="#206666" transform="translate(378,269)"/>
<path d="M0 0 C5.17226615 4.6873662 8.98925493 10.31728181 13 16 C12.34 16.33 11.68 16.66 11 17 C8.84521484 16.01196289 8.84521484 16.01196289 6.2109375 14.47265625 C5.26992187 13.92802734 4.32890625 13.38339844 3.359375 12.82226562 C2.37453125 12.24154297 1.3896875 11.66082031 0.375 11.0625 C-0.61757812 10.48564453 -1.61015625 9.90878906 -2.6328125 9.31445312 C-5.09280248 7.88340126 -7.54819042 6.44500804 -10 5 C-8.203125 3.9453125 -8.203125 3.9453125 -6 3 C-2.75 3.875 -2.75 3.875 0 5 C0 3.35 0 1.7 0 0 Z " fill="#186565" transform="translate(214,251)"/>
<path d="M0 0 C0 17.16 0 34.32 0 52 C-1.65 51.67 -3.3 51.34 -5 51 C-3.02 50.505 -3.02 50.505 -1 50 C-1.33 34.49 -1.66 18.98 -2 3 C-5.7555494 7.33649122 -5.7555494 7.33649122 -7 10 C-7.66 9.67 -8.32 9.34 -9 9 C-8.67 8.34 -8.34 7.68 -8 7 C-11.63 6.67 -15.26 6.34 -19 6 C-15.95434472 3.96956315 -15.08703211 3.75746085 -11.625 3.5625 C-7.2843415 3.18136901 -3.94917499 0 0 0 Z " fill="#1D6464" transform="translate(372,269)"/>
<path d="M0 0 C6.03523728 3.27408894 12.05469543 6.56493514 18 10 C17.21625 10.598125 16.4325 11.19625 15.625 11.8125 C12.85425677 13.91085249 12.85425677 13.91085249 11 17 C9.15895764 14.54735411 7.32852207 12.08699041 5.5 9.625 C4.71302734 8.57699219 4.71302734 8.57699219 3.91015625 7.5078125 C3.41386719 6.8375 2.91757813 6.1671875 2.40625 5.4765625 C1.94541016 4.85861816 1.48457031 4.24067383 1.00976562 3.60400391 C0 2 0 2 0 0 Z " fill="#0F6868" transform="translate(217,242)"/>
<path d="M0 0 C5 2 5 2 6 4 C4.68 4 3.36 4 2 4 C2.03552979 4.62044189 2.07105957 5.24088379 2.10766602 5.88012695 C2.26525147 8.69062008 2.41397433 11.50151416 2.5625 14.3125 C2.61857422 15.28896484 2.67464844 16.26542969 2.73242188 17.27148438 C2.78076172 18.20927734 2.82910156 19.14707031 2.87890625 20.11328125 C2.94960327 21.40939331 2.94960327 21.40939331 3.02172852 22.73168945 C3 25 3 25 2 28 C2.66 28 3.32 28 4 28 C4.33 27.01 4.66 26.02 5 25 C5.99 25 6.98 25 8 25 C8.33 24.34 8.66 23.68 9 23 C9 23.99 9 24.98 9 26 C7.28515625 27.38671875 7.28515625 27.38671875 5.0625 28.6875 C4.33160156 29.12449219 3.60070312 29.56148438 2.84765625 30.01171875 C1 31 1 31 0 31 C0 20.77 0 10.54 0 0 Z " fill="#166565" transform="translate(377,332)"/>
<path d="M0 0 C0.33 9.57 0.66 19.14 1 29 C-0.32 28.67 -1.64 28.34 -3 28 C-2.34 27.67 -1.68 27.34 -1 27 C-1.08378906 26.26136719 -1.16757812 25.52273438 -1.25390625 24.76171875 C-1.9653818 17.67398135 -1.90377854 11.06337692 -1 4 C-1.66 4 -2.32 4 -3 4 C-3.144375 4.94875 -3.28875 5.8975 -3.4375 6.875 C-4 10 -4 10 -5 12 C-7.475 11.01 -7.475 11.01 -10 10 C-10.66 10.66 -11.32 11.32 -12 12 C-11.45550236 8.20527027 -9.96207612 6.72968732 -7.0625 4.3125 C-6.35222656 3.71050781 -5.64195312 3.10851562 -4.91015625 2.48828125 C-1.71653543 0 -1.71653543 0 0 0 Z " fill="#136667" transform="translate(373,373)"/>
<path d="M0 0 C12.64046021 -0.36816874 12.64046021 -0.36816874 18 2 C18.94552734 2.39638672 18.94552734 2.39638672 19.91015625 2.80078125 C21.61449133 3.51572102 23.30830146 4.25565264 25 5 C24.34 6.98 23.68 8.96 23 11 C21.35 11 19.7 11 18 11 C19.32 9.35 20.64 7.7 22 6 C12.63052548 2.51756397 12.63052548 2.51756397 3.00390625 2.8828125 C0.62796573 4.24998221 0.62796573 4.24998221 -1.3984375 5.86328125 C-1.92695313 6.23839844 -2.45546875 6.61351562 -3 7 C-3.66 6.67 -4.32 6.34 -5 6 C-4.34 4.68 -3.68 3.36 -3 2 C-2.01 2 -1.02 2 0 2 C0 1.34 0 0.68 0 0 Z " fill="#186564" transform="translate(342,283)"/>
<path d="M0 0 C0.33 0.66 0.66 1.32 1 2 C0.40625 3.734375 0.40625 3.734375 -0.5 5.75 C-1.99948261 9.56435209 -2.36121953 12.00708938 -1 16 C0.43661311 18.52006844 0.43661311 18.52006844 3 20 C7.91307062 20.62388198 9.86334406 20.75777063 14 18 C14.66 17.34 15.32 16.68 16 16 C14.59958479 19.38433676 13.33473395 21.37538603 10 23 C4.9982319 23.32783124 1.88158322 22.76904068 -1.9375 19.4375 C-2.618125 18.633125 -3.29875 17.82875 -4 17 C-4.66 17 -5.32 17 -6 17 C-5.34 13.7 -4.68 10.4 -4 7 C-4.66 6.67 -5.32 6.34 -6 6 C-4.625 4.5 -4.625 4.5 -3 3 C-2.34 3 -1.68 3 -1 3 C-0.67 2.01 -0.34 1.02 0 0 Z " fill="#1B6161" transform="translate(183,278)"/>
<path d="M0 0 C2.90802461 2.21928194 4.95312762 3.92969143 7 7 C8.65 6.67 10.3 6.34 12 6 C12.495 7.485 12.495 7.485 13 9 C9.25 10.125 9.25 10.125 7 9 C6.67 9.66 6.34 10.32 6 11 C6 10.01 6 9.02 6 8 C5.38125 7.896875 4.7625 7.79375 4.125 7.6875 C2 7 2 7 0 4 C-0.66 3.67 -1.32 3.34 -2 3 C-2 3.66 -2 4.32 -2 5 C-3.31975268 5.90298868 -4.64689377 6.79624079 -6 7.6484375 C-10.20216724 10.48818333 -14.06964039 13.79978625 -18 17 C-18.66 16.67 -19.32 16.34 -20 16 C-6.3667426 4.29384966 -6.3667426 4.29384966 0 0 Z " fill="#19605F" transform="translate(541,253)"/>
<path d="M0 0 C0 0.99 0 1.98 0 3 C-1 4 -2 5 -3 6 C-3 6.99 -3 7.98 -3 9 C-4.50390625 10.359375 -4.50390625 10.359375 -6.5625 11.75 C-12.05367602 15.68615272 -16.97173476 19.7813761 -20.1875 25.8125 C-21.95495932 28.92079053 -22.67411151 29.93096442 -26 31 C-20.39704259 19.08050097 -9.25347419 9.187724 0 0 Z " fill="#1D5D5C" transform="translate(206,198)"/>
<path d="M0 0 C0.66 0.33 1.32 0.66 2 1 C1.360625 1.598125 0.72125 2.19625 0.0625 2.8125 C-2.20310389 4.90810337 -2.20310389 4.90810337 -3 8 C-2.01 8 -1.02 8 0 8 C0.66 6.68 1.32 5.36 2 4 C2.66 4.66 3.32 5.32 4 6 C3.34 6 2.68 6 2 6 C2 7.65 2 9.3 2 11 C3.32 11.33 4.64 11.66 6 12 C5.01 12.33 4.02 12.66 3 13 C3 13.66 3 14.32 3 15 C-2.75 13.375 -2.75 13.375 -5 10 C-4.84004059 6.24095376 -4.42578361 4.49029628 -1.9375 1.625 C-1.298125 1.08875 -0.65875 0.5525 0 0 Z " fill="#186565" transform="translate(338,297)"/>
<path d="M0 0 C0.33 0.66 0.66 1.32 1 2 C1.99 1.67 2.98 1.34 4 1 C4.33 1.33 4.66 1.66 5 2 C5.33 1.34 5.66 0.68 6 0 C6.66 0 7.32 0 8 0 C8 3.63 8 7.26 8 11 C6.35 11 4.7 11 3 11 C3 10.01 3 9.02 3 8 C2.34 8 1.68 8 1 8 C0.67 8.66 0.34 9.32 0 10 C0 6.7 0 3.4 0 0 Z " fill="#1F6467" transform="translate(331,482)"/>
<path d="M0 0 C5.01632918 2.50816459 7.37533897 4.05551594 11 8 C10.67 8.66 10.34 9.32 10 10 C9.01 9.67 8.02 9.34 7 9 C7 8.34 7 7.68 7 7 C6.01 7.33 5.02 7.66 4 8 C3.34 7.67 2.68 7.34 2 7 C1.67 10.96 1.34 14.92 1 19 C0.67 19 0.34 19 0 19 C0 12.73 0 6.46 0 0 Z " fill="#1E6363" transform="translate(377,373)"/>
<path d="M0 0 C0.66 0.33 1.32 0.66 2 1 C-2.56574723 6.75933089 -7.17713268 12.45370258 -12 18 C-13 15 -13 15 -12.14453125 12.95703125 C-11.70496094 12.24933594 -11.26539063 11.54164063 -10.8125 10.8125 C-10.38582031 10.09707031 -9.95914063 9.38164063 -9.51953125 8.64453125 C-9.01808594 8.10183594 -8.51664063 7.55914063 -8 7 C-6.68 7 -5.36 7 -4 7 C-4.33 5.68 -4.66 4.36 -5 3 C-2.625 1.4375 -2.625 1.4375 0 0 Z " fill="#166261" transform="translate(566,524)"/>
<path d="M0 0 C1.43739513 -0.02712066 2.87493863 -0.04645067 4.3125 -0.0625 C5.51326172 -0.07990234 5.51326172 -0.07990234 6.73828125 -0.09765625 C9 0 9 0 12 1 C13.84371272 1.2153564 15.69253981 1.38829681 17.54296875 1.53515625 C18.61611328 1.62216797 19.68925781 1.70917969 20.79492188 1.79882812 C21.91447266 1.88583984 23.03402344 1.97285156 24.1875 2.0625 C25.88422852 2.19881836 25.88422852 2.19881836 27.61523438 2.33789062 C30.40990736 2.56193614 33.20481111 2.78250144 36 3 C36 3.33 36 3.66 36 4 C27.3596317 4.10594457 18.75548065 4.02331695 10.125 3.5625 C9.34656738 3.52326416 8.56813477 3.48402832 7.76611328 3.44360352 C2.24789361 3.12394681 2.24789361 3.12394681 0 2 C0 1.34 0 0.68 0 0 Z " fill="#1C6462" transform="translate(385,273)"/>
<path d="M0 0 C0.66 0.66 1.32 1.32 2 2 C3.98982813 2.69643985 5.99294757 3.354876 8 4 C9.64705316 4.70549229 11.2927964 5.41404745 12.9375 6.125 C17.16541616 7.85171651 20.40908656 8.18003582 25 8 C27.9375 9 27.9375 9 30 10 C30 10.33 30 10.66 30 11 C22.28767297 10.97358792 15.5552676 9.83320249 8.375 7.125 C7.68857422 6.86831543 7.00214844 6.61163086 6.29492188 6.34716797 C2.96144446 5.0252431 0.26470585 3.84365321 -2 1 C-1.34 0.67 -0.68 0.34 0 0 Z " fill="#1D6364" transform="translate(442,264)"/>
<path d="M0 0 C0.78375 0.04125 1.5675 0.0825 2.375 0.125 C3.035 1.445 3.695 2.765 4.375 4.125 C3.385 4.455 2.395 4.785 1.375 5.125 C1.045 6.115 0.715 7.105 0.375 8.125 C-1.275 7.795 -2.925 7.465 -4.625 7.125 C-4.75 4.75 -4.75 4.75 -4.625 2.125 C-2.625 0.125 -2.625 0.125 0 0 Z " fill="#0D6B6B" transform="translate(191.625,281.875)"/>
<path d="M0 0 C1.33333333 1.66666667 2.66666667 3.33333333 4 5 C4.7425 5.78375 5.485 6.5675 6.25 7.375 C8.58379601 10.87569401 8.50058274 12.85231444 8 17 C6.42183083 21.65559907 4.73237836 24.78243245 1 28 C0.34 27.67 -0.32 27.34 -1 27 C-0.21625 26.34 0.5675 25.68 1.375 25 C4.48591791 21.44466525 5.78438612 18.71655356 6 14 C4.40352601 8.11300216 1.74243815 5.47778798 -3 2 C-2.01 1.34 -1.02 0.68 0 0 Z " fill="#1D6260" transform="translate(417,290)"/>
<path d="M0 0 C0.33 0 0.66 0 1 0 C1 2.97 1 5.94 1 9 C0.34 9 -0.32 9 -1 9 C-0.67 9.99 -0.34 10.98 0 12 C-0.28875 12.825 -0.5775 13.65 -0.875 14.5 C-2.19574382 18.60898079 -2.42461101 22.41591888 -2.65625 26.70703125 C-2.7696875 27.46371094 -2.883125 28.22039062 -3 29 C-3.66 29.33 -4.32 29.66 -5 30 C-4.63818103 19.5977045 -2.58545582 10.04118889 0 0 Z " fill="#1C6461" transform="translate(138,315)"/>
<path d="M0 0 C4.39309313 1.58003686 6.82418312 3.55197024 10 7 C7.03 6.505 7.03 6.505 4 6 C4.165 6.7425 4.33 7.485 4.5 8.25 C5 11 5 11 5 15 C6.65 14.67 8.3 14.34 10 14 C9.01 14.99 8.02 15.98 7 17 C6.01 16.67 5.02 16.34 4 16 C3.11917378 13.28681956 2.42123771 10.71116483 1.8125 7.9375 C1.63525391 7.17888672 1.45800781 6.42027344 1.27539062 5.63867188 C0.83863033 3.76178303 0.41780844 1.8811984 0 0 Z " fill="#186564" transform="translate(255,207)"/>
<path d="M0 0 C0 0.99 0 1.98 0 3 C-2.31 3 -4.62 3 -7 3 C-6.67 7.62 -6.34 12.24 -6 17 C-8.64 17 -11.28 17 -14 17 C-14 16.34 -14 15.68 -14 15 C-12.35 15 -10.7 15 -9 15 C-9.33 11.37 -9.66 7.74 -10 4 C-4.5 0 -4.5 0 0 0 Z " fill="#1B6060" transform="translate(382,162)"/>
<path d="M0 0 C3.5433404 2.83467232 4.88908286 4.24822828 5.5625 8.8125 C5.16603715 14.35254661 3.08861623 18.89796654 -0.82421875 22.8359375 C-2.50855012 24.29136379 -4.21239925 25.67436349 -6 27 C-4.74248875 24.29781304 -3.40096639 22.1139378 -1.4375 19.875 C2.49481547 15.23688432 2.4253562 11.90552677 2 6 C1.11539972 2.58528076 1.11539972 2.58528076 0 0 Z " fill="#1D6161" transform="translate(392,376)"/>
<path d="M0 0 C4.95454545 1.85795455 4.95454545 1.85795455 6.5 4.3125 C6.6875 7 6.6875 7 6.5 9.3125 C4.5 8.0625 4.5 8.0625 2.5 6.3125 C2.5 4.9925 2.5 3.6725 2.5 2.3125 C-0.14 2.3125 -2.78 2.3125 -5.5 2.3125 C-4.7575 3.4571875 -4.7575 3.4571875 -4 4.625 C-2.5 7.3125 -2.5 7.3125 -2.5 10.3125 C-5.04563558 8.16461998 -6.37986066 7.03333605 -6.9375 3.6875 C-6.793125 2.90375 -6.64875 2.12 -6.5 1.3125 C-3.5 -0.6875 -3.5 -0.6875 0 0 Z " fill="#186260" transform="translate(482.5,198.6875)"/>
<path d="M0 0 C0 0.66 0 1.32 0 2 C0.66 2 1.32 2 2 2 C2 2.66 2 3.32 2 4 C2.66 4 3.32 4 4 4 C3.67 5.32 3.34 6.64 3 8 C1.02 7.34 -0.96 6.68 -3 6 C-2.67 6.99 -2.34 7.98 -2 9 C-3.32 8.34 -4.64 7.68 -6 7 C-5.37162381 3.35541809 -4.14650034 0 0 0 Z " fill="#10696A" transform="translate(502,232)"/>
<path d="M0 0 C6.95660771 0.57021375 13.31427305 2.01302694 20 4 C19.67 4.66 19.34 5.32 19 6 C15.37 6 11.74 6 8 6 C7.67 5.01 7.34 4.02 7 3 C6.01 3.33 5.02 3.66 4 4 C3.34 3.67 2.68 3.34 2 3 C2 2.34 2 1.68 2 1 C1.34 0.67 0.68 0.34 0 0 Z " fill="#1A6362" transform="translate(424,136)"/>
<path d="M0 0 C0.33 0.66 0.66 1.32 1 2 C1.99 2.33 2.98 2.66 4 3 C3.01 3.495 3.01 3.495 2 4 C2.928125 4.928125 2.928125 4.928125 3.875 5.875 C5.25 7.25 6.625 8.625 8 10 C5.36 10 2.72 10 0 10 C0.33 10.66 0.66 11.32 1 12 C-1.88437779 10.70700306 -3.87219421 9.34058637 -6 7 C-3.525 7.495 -3.525 7.495 -1 8 C-0.67 5.36 -0.34 2.72 0 0 Z " fill="#166161" transform="translate(284,207)"/>
<path d="M0 0 C0 3.83764027 -1.26535335 5.11486085 -3.5 8.1875 C-4.1496875 9.08855469 -4.799375 9.98960937 -5.46875 10.91796875 C-5.9740625 11.60503906 -6.479375 12.29210937 -7 13 C-7.66 12.67 -8.32 12.34 -9 12 C-9.625 8.9375 -9.625 8.9375 -10 6 C-7.03 6.495 -7.03 6.495 -4 7 C-4 5.35 -4 3.7 -4 2 C-2.68 1.34 -1.36 0.68 0 0 Z " fill="#186262" transform="translate(413,172)"/>
<path d="M0 0 C5 2 5 2 6 4 C4.35 3.67 2.7 3.34 1 3 C1.33 11.91 1.66 20.82 2 30 C1.34 30.33 0.68 30.66 0 31 C0 20.77 0 10.54 0 0 Z " fill="#276361" transform="translate(377,332)"/>
<path d="M0 0 C4.17882671 2.56428003 7.12505529 5.01930733 10 9 C7.53199953 7.84826645 5.95216435 6.95216435 4 5 C1.93125966 4.3574765 1.93125966 4.3574765 0 4 C0 4.66 0 5.32 0 6 C-0.66 6 -1.32 6 -2 6 C-2.33 6.99 -2.66 7.98 -3 9 C-3.66 8.67 -4.32 8.34 -5 8 C-3.8141763 4.62496331 -2.72426311 2.35277269 0 0 Z " fill="#1A6260" transform="translate(509,219)"/>
<path d="M0 0 C0.66 0.33 1.32 0.66 2 1 C2.3125 3.25 2.3125 3.25 2 6 C-0.1657015 8.50409236 -1.76330321 9.8559854 -5.11328125 10.24609375 C-7.07723164 10.24958212 -9.04054455 10.13284444 -11 10 C-11.33 9.34 -11.66 8.68 -12 8 C-9.36 8 -6.72 8 -4 8 C-4 7.34 -4 6.68 -4 6 C-3.34 6 -2.68 6 -2 6 C-1.67 5.01 -1.34 4.02 -1 3 C-0.67 2.01 -0.34 1.02 0 0 Z " fill="#196262" transform="translate(305,201)"/>
<path d="M0 0 C0.33 0 0.66 0 1 0 C1.95043457 11.35429868 2.11033706 22.61076383 2 34 C1.67 34 1.34 34 1 34 C1 28.06 1 22.12 1 16 C0.34 15.67 -0.32 15.34 -1 15 C-1.6875 13 -1.6875 13 -2 11 C-1.67 10.67 -1.34 10.34 -1 10 C-0.76712992 8.31816052 -0.58735834 6.6287584 -0.4375 4.9375 C-0.35371094 4.01839844 -0.26992188 3.09929687 -0.18359375 2.15234375 C-0.12300781 1.44207031 -0.06242187 0.73179687 0 0 Z " fill="#1E6364" transform="translate(350,166)"/>
<path d="M0 0 C1.32 0.99 2.64 1.98 4 3 C4.639375 2.505 5.27875 2.01 5.9375 1.5 C8 0 8 0 9 0 C9 2.64 9 5.28 9 8 C7.1875 8.6875 7.1875 8.6875 5 9 C3.4375 7.625 3.4375 7.625 2 6 C1.01 5.67 0.02 5.34 -1 5 C-1 2 -1 2 0 0 Z " fill="#125E5F" transform="translate(399,483)"/>
<path d="M0 0 C3.01906912 0.32347169 4.06256576 1.05918383 6.3125 3.1875 C8 6 8 6 8 9.1875 C7 12 7 12 4.9375 13.17578125 C4.298125 13.44777344 3.65875 13.71976562 3 14 C3.03480469 13.24074219 3.06960938 12.48148437 3.10546875 11.69921875 C3.13253906 10.70535156 3.15960938 9.71148437 3.1875 8.6875 C3.22230469 7.70136719 3.25710938 6.71523438 3.29296875 5.69921875 C3.24278108 2.95425611 3.24278108 2.95425611 1.48828125 1.14453125 C0.99714844 0.76683594 0.50601562 0.38914062 0 0 Z " fill="#196362" transform="translate(409,297)"/>
<path d="M0 0 C5.00113594 1.48008696 9.32915597 3.6318336 13.875 6.125 C14.56335938 6.49753906 15.25171875 6.87007812 15.9609375 7.25390625 C17.64294798 8.16499526 19.32180436 9.08190315 21 10 C17.28272326 11.13583456 15.52948291 10.66670026 12 9 C12 8.34 12 7.68 12 7 C11.13375 6.7525 10.2675 6.505 9.375 6.25 C5.80481983 4.92771105 3.05577189 3.25545068 0 1 C0 0.67 0 0.34 0 0 Z " fill="#1C6261" transform="translate(480,155)"/>
<path d="M0 0 C3.96 1.98 3.96 1.98 8 4 C7.67 4.66 7.34 5.32 7 6 C6.34 5.67 5.68 5.34 5 5 C5.51691406 5.61488281 6.03382813 6.22976562 6.56640625 6.86328125 C7.22511719 7.67152344 7.88382813 8.47976562 8.5625 9.3125 C9.22378906 10.11300781 9.88507813 10.91351563 10.56640625 11.73828125 C11.03949219 12.48464844 11.51257813 13.23101562 12 14 C11.67 14.99 11.34 15.98 11 17 C9.15895764 14.54735411 7.32852207 12.08699041 5.5 9.625 C4.71302734 8.57699219 4.71302734 8.57699219 3.91015625 7.5078125 C3.41386719 6.8375 2.91757813 6.1671875 2.40625 5.4765625 C1.94541016 4.85861816 1.48457031 4.24067383 1.00976562 3.60400391 C0 2 0 2 0 0 Z " fill="#1C5E5F" transform="translate(217,242)"/>
<path d="M0 0 C0.66 0.33 1.32 0.66 2 1 C2 1.99 2 2.98 2 4 C-1.33333333 7 -1.33333333 7 -4 7 C-4 7.66 -4 8.32 -4 9 C-5.8125 10.0625 -5.8125 10.0625 -8 11 C-8.99 10.67 -9.98 10.34 -11 10 C-5.555 5.05 -5.555 5.05 0 0 Z " fill="#1A6261" transform="translate(218,187)"/>
<path d="M0 0 C0.88310664 2.64931992 1.17612723 4.57089681 1.375 7.3125 C1.78332123 11.4090999 2.88896842 14.42042472 5 18 C4.01 18.33 3.02 18.66 2 19 C-0.74439661 16.16501165 -1.95555766 14.70772328 -2.20703125 10.703125 C-2.07683594 9.56359375 -1.94664062 8.4240625 -1.8125 7.25 C-1.69519531 6.10015625 -1.57789063 4.9503125 -1.45703125 3.765625 C-1 1 -1 1 0 0 Z " fill="#1B6263" transform="translate(532,282)"/>
<path d="M0 0 C0.28875 0.61875 0.5775 1.2375 0.875 1.875 C2.52703842 4.99551702 3.62072216 5.87357405 7 7 C6.34 8.65 5.68 10.3 5 12 C3.68 12 2.36 12 1 12 C-0.26237731 9.47524538 -0.09856404 7.68799534 -0.0625 4.875 C-0.05347656 3.96492188 -0.04445313 3.05484375 -0.03515625 2.1171875 C-0.02355469 1.41851562 -0.01195312 0.71984375 0 0 Z M4 8 C5 10 5 10 5 10 Z " fill="#1D6466" transform="translate(397,483)"/>
<path d="M0 0 C0 2.97 0 5.94 0 9 C-0.33 9 -0.66 9 -1 9 C-1 7.02 -1 5.04 -1 3 C-1.66 4.32 -2.32 5.64 -3 7 C-3.33 6.01 -3.66 5.02 -4 4 C-4.66 4 -5.32 4 -6 4 C-6 3.34 -6 2.68 -6 2 C-7.32 2.33 -8.64 2.66 -10 3 C-10 2.34 -10 1.68 -10 1 C-5.8922935 -0.58706842 -4.40767604 -1.10191901 0 0 Z " fill="#0E5D5D" transform="translate(306,483)"/>
<path d="M0 0 C4.98777148 2.49388574 5.51258849 4.20284924 8 9 C7.01 9 6.02 9 5 9 C5 8.34 5 7.68 5 7 C4.34 7 3.68 7 3 7 C2.67 6.01 2.34 5.02 2 4 C1.67 7.63 1.34 11.26 1 15 C0.67 15 0.34 15 0 15 C0 10.05 0 5.1 0 0 Z " fill="#1C6566" transform="translate(376,411)"/>
<path d="M0 0 C0 3 0 3 -1.86328125 5.26171875 C-2.67152344 6.06222656 -3.47976563 6.86273438 -4.3125 7.6875 C-5.11300781 8.49574219 -5.91351563 9.30398438 -6.73828125 10.13671875 C-9 12 -9 12 -12 12 C-12 10.35 -12 8.7 -12 7 C-11.34 7.66 -10.68 8.32 -10 9 C-8.9171875 7.88625 -8.9171875 7.88625 -7.8125 6.75 C-5.31407427 4.30709485 -2.76356798 2.1318953 0 0 Z " fill="#176061" transform="translate(388,390)"/>
<path d="M0 0 C0.99 0 1.98 0 3 0 C3.33 0.99 3.66 1.98 4 3 C5.32 2.67 6.64 2.34 8 2 C7.34 3.98 6.68 5.96 6 8 C5.34 8 4.68 8 4 8 C3.67 8.66 3.34 9.32 3 10 C2.87625 9.195625 2.7525 8.39125 2.625 7.5625 C2.315625 6.2940625 2.315625 6.2940625 2 5 C1.34 4.67 0.68 4.34 0 4 C-0.33 4.99 -0.66 5.98 -1 7 C-1.042721 5.33388095 -1.04063832 3.66617115 -1 2 C-0.67 1.67 -0.34 1.34 0 1 C0 0.67 0 0.34 0 0 Z " fill="#115C60" transform="translate(315,484)"/>
<path d="M0 0 C0.33 0 0.66 0 1 0 C1.33 9.57 1.66 19.14 2 29 C0.68 28.67 -0.64 28.34 -2 28 C-1.34 27.67 -0.68 27.34 0 27 C-0.0721875 26.29617188 -0.144375 25.59234375 -0.21875 24.8671875 C-0.96522887 16.92548171 -1.38686129 8.9761696 -1 1 C-0.67 0.67 -0.34 0.34 0 0 Z " fill="#225D5C" transform="translate(372,373)"/>
<path d="M0 0 C3.98175544 2.10148204 6.35039045 4.36905358 9 8 C7.49776416 12.20626034 4.71449966 13.73900021 1 16 C1.33 14.35 1.66 12.7 2 11 C3.32 11 4.64 11 6 11 C5.39816251 8.97954558 4.72693904 6.97888961 4 5 C3.34 4.67 2.68 4.34 2 4 C2 3.34 2 2.68 2 2 C1.34 2 0.68 2 0 2 C0 1.34 0 0.68 0 0 Z " fill="#1A6462" transform="translate(528,238)"/>
<path d="M0 0 C0.12375 0.61875 0.2475 1.2375 0.375 1.875 C0.87197356 4.19120832 0.87197356 4.19120832 3 6 C2.01 6.495 2.01 6.495 1 7 C1.66 8.32 2.32 9.64 3 11 C1.66102417 10.04956626 0.32894573 9.08940853 -1 8.125 C-1.7425 7.59132813 -2.485 7.05765625 -3.25 6.5078125 C-3.8275 6.01023437 -4.405 5.51265625 -5 5 C-5 4.34 -5 3.68 -5 3 C-2.5 1.375 -2.5 1.375 0 0 Z " fill="#166363" transform="translate(388,364)"/>
<path d="M0 0 C0.66 0 1.32 0 2 0 C2.433125 0.639375 2.86625 1.27875 3.3125 1.9375 C5.40849852 4.49927596 6.78299472 4.65221564 10 5 C10 5.66 10 6.32 10 7 C10.66 7 11.32 7 12 7 C12 8.65 12 10.3 12 12 C2.87822878 5.35793358 2.87822878 5.35793358 0 2 C0 1.34 0 0.68 0 0 Z " fill="#1A6463" transform="translate(515,215)"/>
<path d="M0 0 C4 0 4 0 6.25 2.0625 C8.37388366 5.62759043 8.3200954 7.91878361 8 12 C8.66 12 9.32 12 10 12 C10 14 10 14 8.625 15.625 C7 17 7 17 5 17 C5.11859375 16.41992188 5.2371875 15.83984375 5.359375 15.2421875 C6.094839 10.78527564 6.35820311 8.67935073 4.1875 4.5625 C2.09099975 2.03853143 2.09099975 2.03853143 0 0 Z " fill="#1B6566" transform="translate(307,193)"/>
<path d="M0 0 C1.22419163 3.93795909 0.48320272 6.16112237 -1 10 C-2.175625 10.2165625 -2.175625 10.2165625 -3.375 10.4375 C-5.96421018 10.87798925 -5.96421018 10.87798925 -8 12 C-6.59023295 8.96147295 -4.91129772 6.4060405 -2.875 3.75 C-2.06675781 2.69039062 -2.06675781 2.69039062 -1.2421875 1.609375 C-0.83226562 1.07828125 -0.42234375 0.5471875 0 0 Z " fill="#1C6462" transform="translate(422,173)"/>
<path d="M0 0 C0.75 1.5625 0.75 1.5625 1 4 C-0.96297543 8.82564793 -0.96297543 8.82564793 -3 11 C-6.75 11.9375 -6.75 11.9375 -10 12 C-10.33 11.34 -10.66 10.68 -11 10 C-7.86650268 8.95550089 -7.01031744 9.06576355 -4 10 C-4.33 8.68 -4.66 7.36 -5 6 C-3.68 6 -2.36 6 -1 6 C-1.020625 5.195625 -1.04125 4.39125 -1.0625 3.5625 C-1 1 -1 1 0 0 Z " fill="#1C6162" transform="translate(211,288)"/>
<path d="M0 0 C1.8125 1.25 1.8125 1.25 3 3 C3 4.32 3 5.64 3 7 C2.01 6.67 1.02 6.34 0 6 C-1.1875 3.4375 -1.1875 3.4375 -2 1 C-2.83144531 1.45052734 -2.83144531 1.45052734 -3.6796875 1.91015625 C-4.40414062 2.29042969 -5.12859375 2.67070312 -5.875 3.0625 C-6.95394531 3.63677734 -6.95394531 3.63677734 -8.0546875 4.22265625 C-8.69664062 4.47917969 -9.33859375 4.73570312 -10 5 C-10.66 4.67 -11.32 4.34 -12 4 C-4.64292237 -0.45296804 -4.64292237 -0.45296804 0 0 Z " fill="#1B6567" transform="translate(561,266)"/>
<path d="M0 0 C0 0.33 0 0.66 0 1 C-1.15628906 1.30744141 -1.15628906 1.30744141 -2.3359375 1.62109375 C-3.33882813 1.89050781 -4.34171875 2.15992188 -5.375 2.4375 C-6.37273437 2.70433594 -7.37046875 2.97117188 -8.3984375 3.24609375 C-10.95417701 3.90184356 -10.95417701 3.90184356 -13 5 C-14.71233688 4.9129796 -16.42175406 4.75902838 -18.125 4.5625 C-19.03507812 4.46066406 -19.94515625 4.35882813 -20.8828125 4.25390625 C-21.58148438 4.17011719 -22.28015625 4.08632812 -23 4 C-22.67 3.01 -22.34 2.02 -22 1 C-21.34 1.33 -20.68 1.66 -20 2 C-13.0036335 2.41155097 -6.94912466 -0.33898169 0 0 Z " fill="#216365" transform="translate(305,200)"/>
<path d="M0 0 C0.33 0.66 0.66 1.32 1 2 C2.423125 1.690625 2.423125 1.690625 3.875 1.375 C5.421875 1.189375 5.421875 1.189375 7 1 C7.66 1.66 8.32 2.32 9 3 C7.04486839 3.696553 5.08577524 4.38199565 3.125 5.0625 C2.03445313 5.44535156 0.94390625 5.82820312 -0.1796875 6.22265625 C-3 7 -3 7 -5 6 C-3.68 5.67 -2.36 5.34 -1 5 C-0.67 3.35 -0.34 1.7 0 0 Z " fill="#176664" transform="translate(450,602)"/>
<path d="M0 0 C1.45880109 0.14107747 2.91703551 0.28802415 4.375 0.4375 C5.59316406 0.55931641 5.59316406 0.55931641 6.8359375 0.68359375 C9 1 9 1 11 2 C11 2.66 11 3.32 11 4 C9.46875 5.2890625 9.46875 5.2890625 7.5 6.625 C6.8503125 7.07101562 6.200625 7.51703125 5.53125 7.9765625 C4.77328125 8.48316406 4.77328125 8.48316406 4 9 C4 7.68 4 6.36 4 5 C4.66 4.67 5.32 4.34 6 4 C6 3.34 6 2.68 6 2 C4.02 2 2.04 2 0 2 C0 1.34 0 0.68 0 0 Z " fill="#1B605F" transform="translate(354,325)"/>
<path d="M0 0 C0.99 0.33 1.98 0.66 3 1 C3 1.99 3 2.98 3 4 C5.64 4 8.28 4 11 4 C8.09907498 5.93395001 7.10325263 6.30131941 3.8125 6.625 C2.554375 6.74875 1.29625 6.8725 0 7 C0 4.69 0 2.38 0 0 Z " fill="#196263" transform="translate(378,254)"/>
<path d="M0 0 C1.32 0.66 2.64 1.32 4 2 C2.21385682 3.03046722 0.42089982 4.04913236 -1.375 5.0625 C-2.87160156 5.91521484 -2.87160156 5.91521484 -4.3984375 6.78515625 C-5.25695312 7.18605469 -6.11546875 7.58695313 -7 8 C-7.66 7.67 -8.32 7.34 -9 7 C-8.34 6.01 -7.68 5.02 -7 4 C-7 3.34 -7 2.68 -7 2 C-4.69 2 -2.38 2 0 2 C0 1.34 0 0.68 0 0 Z " fill="#166462" transform="translate(334,248)"/>
<path d="M0 0 C0.66 0 1.32 0 2 0 C2 5.94 2 11.88 2 18 C0.68 17.34 -0.64 16.68 -2 16 C-1.34 15.67 -0.68 15.34 0 15 C0 11.37 0 7.74 0 4 C-1.32 4.99 -2.64 5.98 -4 7 C-2.79618552 4.50638429 -1.54571278 2.31856917 0 0 Z " fill="#1F6568" transform="translate(446,183)"/>
<path d="M0 0 C1.20366211 0.00483398 1.20366211 0.00483398 2.43164062 0.00976562 C3.68170898 0.02233398 3.68170898 0.02233398 4.95703125 0.03515625 C5.80201172 0.03966797 6.64699219 0.04417969 7.51757812 0.04882812 C9.6015928 0.06060222 11.68557102 0.07853735 13.76953125 0.09765625 C13.76953125 0.42765625 13.76953125 0.75765625 13.76953125 1.09765625 C12.16078125 1.31421875 12.16078125 1.31421875 10.51953125 1.53515625 C7.05215733 1.97691772 7.05215733 1.97691772 4.86328125 2.62890625 C2.3638842 3.18847275 0.07820065 3.19382295 -2.48046875 3.16015625 C-3.3725 3.15113281 -4.26453125 3.14210938 -5.18359375 3.1328125 C-5.8590625 3.12121094 -6.53453125 3.10960937 -7.23046875 3.09765625 C-7.23046875 2.43765625 -7.23046875 1.77765625 -7.23046875 1.09765625 C-4.46481493 0.17577164 -2.84763173 -0.02019597 0 0 Z " fill="#1A6160" transform="translate(313.23046875,275.90234375)"/>
<path d="M0 0 C0.85432111 3.10015009 1.18380965 4.94182506 0 8 C-0.97850195 9.02104551 -1.97980427 10.0206121 -3 11 C-4.17574711 13.09989652 -4.17574711 13.09989652 -5 15 C-5.66 15 -6.32 15 -7 15 C-5.45454854 9.52067211 -2.84456788 4.88570819 0 0 Z " fill="#1A6365" transform="translate(164,251)"/>
<path d="M0 0 C0.66 0.66 1.32 1.32 2 2 C1.67 2.99 1.34 3.98 1 5 C1.99 5 2.98 5 4 5 C4 6.32 4 7.64 4 9 C2.35 9 0.7 9 -1 9 C-1.33 10.32 -1.66 11.64 -2 13 C-2 11.35 -2 9.7 -2 8 C-0.35 8 1.3 8 3 8 C3 7.34 3 6.68 3 6 C1.35 6 -0.3 6 -2 6 C-2 4.35 -2 2.7 -2 1 C-1.34 0.67 -0.68 0.34 0 0 Z " fill="#1A6262" transform="translate(244,483)"/>
<path d="M0 0 C2.64 1.65 5.28 3.3 8 5 C7.34 6.65 6.68 8.3 6 10 C5.01 10 4.02 10 3 10 C3 8.02 3 6.04 3 4 C2.01 3.67 1.02 3.34 0 3 C0 2.01 0 1.02 0 0 Z " fill="#166263" transform="translate(364,401)"/>
<path d="M0 0 C0 0.99 0 1.98 0 3 C-1 4 -2 5 -3 6 C-3 6.99 -3 7.98 -3 9 C-5.31 10.32 -7.62 11.64 -10 13 C-9.48223379 8.89552608 -7.35372556 7.04300477 -4.4375 4.25 C-3.61121094 3.45078125 -2.78492188 2.6515625 -1.93359375 1.828125 C-1.29550781 1.22484375 -0.65742188 0.6215625 0 0 Z " fill="#196463" transform="translate(206,198)"/>
<path d="M0 0 C0.33 0.66 0.66 1.32 1 2 C0.45730469 2.23074219 -0.08539063 2.46148437 -0.64453125 2.69921875 C-5.17482703 4.76438061 -7.96780018 6.21835336 -10 11 C-10.69579454 13.19130534 -10.69579454 13.19130534 -11 15 C-11.66 14.67 -12.32 14.34 -13 14 C-11.67918017 9.37713059 -10.11075215 5.69927283 -7 2 C-3.25 0.625 -3.25 0.625 0 0 Z " fill="#1D6161" transform="translate(290,180)"/>
<path d="M0 0 C0.66 0.33 1.32 0.66 2 1 C1 3 1 3 -1.625 3.9375 C-2.73875 4.288125 -3.8525 4.63875 -5 5 C-7.35463943 5.95598361 -9.67349118 6.97633612 -12 8 C-12.66 7.34 -13.32 6.68 -14 6 C-11.71220962 4.96959833 -9.42048864 3.95047982 -7.125 2.9375 C-6.47402344 2.64294922 -5.82304687 2.34839844 -5.15234375 2.04492188 C-3.45989459 1.30338487 -1.73131425 0.64560999 0 0 Z " fill="#185B59" transform="translate(279,150)"/>
<path d="M0 0 C0.66 0.99 1.32 1.98 2 3 C-0.31 5.97 -2.62 8.94 -5 12 C-6.39195915 7.82412255 -4.82323219 5.86525224 -3 2 C-2.34 2 -1.68 2 -1 2 C-0.67 1.34 -0.34 0.68 0 0 Z " fill="#156360" transform="translate(574,512)"/>
<path d="M0 0 C0 4.98694339 -3.20009217 8.96659061 -6.4453125 12.6328125 C-7.59938151 13.78688151 -8.79546315 14.89870916 -10 16 C-8.55797524 11.84848662 -6.4989562 8.70021555 -3.875 5.1875 C-3.15054688 4.21167969 -2.42609375 3.23585937 -1.6796875 2.23046875 C-0.84824219 1.12638672 -0.84824219 1.12638672 0 0 Z " fill="#1C5F61" transform="translate(179,229)"/>
<path d="M0 0 C0 0.66 0 1.32 0 2 C-0.9075 2.28875 -1.815 2.5775 -2.75 2.875 C-5.86919514 3.82435787 -5.86919514 3.82435787 -7.9375 5.1875 C-11.08555432 6.42764261 -13.74906702 5.62517942 -17 5 C-13.86768478 2.91178985 -11.56941553 2.24877798 -7.9375 1.375 C-6.87402344 1.11460937 -5.81054688 0.85421875 -4.71484375 0.5859375 C-2 0 -2 0 0 0 Z " fill="#1A6361" transform="translate(320,137)"/>
<path d="M0 0 C0.99 1.485 0.99 1.485 2 3 C2.99 2.67 3.98 2.34 5 2 C5 3.98 5 5.96 5 8 C3.35 8.66 1.7 9.32 0 10 C0 6.7 0 3.4 0 0 Z M3 5 C4 7 4 7 4 7 Z " fill="#1F6367" transform="translate(295,483)"/>
<path d="M0 0 C3.3 0 6.6 0 10 0 C10.33 0.66 10.66 1.32 11 2 C10.43152344 1.94199219 9.86304688 1.88398438 9.27734375 1.82421875 C2.79258598 1.4453097 -0.0734616 2.80720136 -5 7 C-5.66 6.67 -6.32 6.34 -7 6 C-5.6875 4.5 -5.6875 4.5 -4 3 C-3.01 3 -2.02 3 -1 3 C-0.67 2.01 -0.34 1.02 0 0 Z " fill="#1F605F" transform="translate(403,248)"/>
<path d="M0 0 C0.66 0.33 1.32 0.66 2 1 C1.67 1.33 1.34 1.66 1 2 C0.76924918 3.34747084 0.58846937 4.70377565 0.4375 6.0625 C0.293125 7.361875 0.14875 8.66125 0 10 C-1.65 8.35 -3.3 6.7 -5 5 C-4.34 4.67 -3.68 4.34 -3 4 C-2.67 3.01 -2.34 2.02 -2 1 C-1.34 0.67 -0.68 0.34 0 0 Z " fill="#176463" transform="translate(461,208)"/>
<path d="M0 0 C3.98069267 2.87494471 6.43571997 5.82117329 9 10 C7.02 10 5.04 10 3 10 C3 9.34 3 8.68 3 8 C2.34 7.34 1.68 6.68 1 6 C1.66 6 2.32 6 3 6 C2.2575 5.071875 2.2575 5.071875 1.5 4.125 C0 2 0 2 0 0 Z " fill="#176463" transform="translate(551,206)"/>
<path d="M0 0 C0.33 0 0.66 0 1 0 C1 2.97 1 5.94 1 9 C-0.65 9 -2.3 9 -4 9 C-4 7.68 -4 6.36 -4 5 C-3.34 5 -2.68 5 -2 5 C-2 4.01 -2 3.02 -2 2 C-1.34 2 -0.68 2 0 2 C0 1.34 0 0.68 0 0 Z " fill="#185E61" transform="translate(338,484)"/>
<path d="M0 0 C2.475 0.495 2.475 0.495 5 1 C5 2.98 5 4.96 5 7 C5.66 7.33 6.32 7.66 7 8 C7.625 10.0625 7.625 10.0625 8 12 C6.0625 11.375 6.0625 11.375 4 10 C2.59459459 4.81081081 2.59459459 4.81081081 4 2 C2.68 1.34 1.36 0.68 0 0 Z " fill="#1B5F5F" transform="translate(464,210)"/>
<path d="M0 0 C3.465 1.485 3.465 1.485 7 3 C8.32 2.01 9.64 1.02 11 0 C11.33 0.66 11.66 1.32 12 2 C10.9375 3.5625 10.9375 3.5625 9 5 C5.4375 4.9375 5.4375 4.9375 2 4 C0.5625 1.9375 0.5625 1.9375 0 0 Z " fill="#196260" transform="translate(219,272)"/>
<path d="M0 0 C2.1387261 3.20808915 2.47730962 4.27698497 2 8 C1.01 8.66 0.02 9.32 -1 10 C-0.7525 9.4225 -0.505 8.845 -0.25 8.25 C-0.12625 7.13625 -0.12625 7.13625 0 6 C-1.85432087 3.72855926 -1.85432087 3.72855926 -4 2 C-2.68 1.34 -1.36 0.68 0 0 Z " fill="#175F5F" transform="translate(516,231)"/>
<path d="M0 0 C4.875 4.625 4.875 4.625 6 8 C3.625 8.1875 3.625 8.1875 1 8 C0.34 7.01 -0.32 6.02 -1 5 C-0.34 5 0.32 5 1 5 C0.67 3.35 0.34 1.7 0 0 Z " fill="#186665" transform="translate(570,229)"/>
<path d="M0 0 C0.99 0.33 1.98 0.66 3 1 C3.7282448 5.99367864 4.38487182 10.99109914 5 16 C3.13389074 13.20083611 2.31214617 11.18061731 1.375 8 C1.11460937 7.13375 0.85421875 6.2675 0.5859375 5.375 C0 3 0 3 0 0 Z " fill="#1C625F" transform="translate(139,437)"/>
<path d="M0 0 C1.58941406 0.29197266 1.58941406 0.29197266 3.2109375 0.58984375 C4.00757813 0.74582031 4.80421875 0.90179688 5.625 1.0625 C5.625 1.3925 5.625 1.7225 5.625 2.0625 C-0.48590483 2.16195415 -6.34903427 2.1337828 -12.375 1.0625 C-12.375 0.7325 -12.375 0.4025 -12.375 0.0625 C-7.92129322 -0.89377638 -4.46682255 -0.84373315 0 0 Z " fill="#1D6260" transform="translate(444.375,276.9375)"/>
<path d="M0 0 C1.60597325 0.45196245 3.20972508 0.91182327 4.8125 1.375 C6.15248047 1.75785156 6.15248047 1.75785156 7.51953125 2.1484375 C10 3 10 3 13 5 C10.69 5 8.38 5 6 5 C6 4.34 6 3.68 6 3 C3.36 3 0.72 3 -2 3 C-1.34 2.01 -0.68 1.02 0 0 Z " fill="#1B5F5E" transform="translate(432,201)"/>
<path d="M0 0 C0.33 2.97 0.66 5.94 1 9 C-1 6 -1 6 -1.8125 3.875 C-2.88778304 1.71722133 -2.88778304 1.71722133 -5.625 1.25 C-6.40875 1.1675 -7.1925 1.085 -8 1 C-4.59449725 -1.06762667 -4.18836538 -1.04709135 0 0 Z " fill="#1E5F5C" transform="translate(325,178)"/>
<path d="M0 0 C0.66 0 1.32 0 2 0 C1.54917531 1.46067199 1.08906463 2.91848032 0.625 4.375 C0.36976563 5.18710937 0.11453125 5.99921875 -0.1484375 6.8359375 C-1 9 -1 9 -3 11 C-2.25 3.375 -2.25 3.375 0 0 Z " fill="#186663" transform="translate(598,469)"/>
<path d="M0 0 C1.5 1.0625 1.5 1.0625 3 3 C3.1875 6.6875 3.1875 6.6875 3 10 C4.65 9.67 6.3 9.34 8 9 C7.01 9.99 6.02 10.98 5 12 C4.01 11.67 3.02 11.34 2 11 C0.60955102 7.12137916 0 4.13537997 0 0 Z " fill="#1D5D5B" transform="translate(257,212)"/>
<path d="M0 0 C0.66 0 1.32 0 2 0 C2.33 3.3 2.66 6.6 3 10 C2.01 9.34 1.02 8.68 0 8 C0 7.01 0 6.02 0 5 C-0.66 5 -1.32 5 -2 5 C-1.125 1.125 -1.125 1.125 0 0 Z " fill="#176461" transform="translate(467,198)"/>
<path d="M0 0 C0 2.31 0 4.62 0 7 C-1.65 7 -3.3 7 -5 7 C-4.53479806 4.30182875 -3.4249099 0 0 0 Z " fill="#0C6A6C" transform="translate(447,186)"/>
<path d="M0 0 C2.46301423 2.46301423 2.76766521 4.27360036 3.625 7.625 C3.88539063 8.62789062 4.14578125 9.63078125 4.4140625 10.6640625 C4.60742188 11.43492187 4.80078125 12.20578125 5 13 C4.34 12.67 3.68 12.34 3 12 C3 11.34 3 10.68 3 10 C2.01 9.67 1.02 9.34 0 9 C0.33 8.01 0.66 7.02 1 6 C0.67 5.67 0.34 5.34 0 5 C-0.04063832 3.33382885 -0.042721 1.66611905 0 0 Z " fill="#1A6262" transform="translate(395,176)"/>
<path d="M0 0 C0.66 0.33 1.32 0.66 2 1 C-3.75 6 -3.75 6 -6 6 C-6.33 6.99 -6.66 7.98 -7 9 C-8.32 8.67 -9.64 8.34 -11 8 C-7.37 5.36 -3.74 2.72 0 0 Z " fill="#1D5E5F" transform="translate(234,175)"/>
<path d="M0 0 C0 0.99 0 1.98 0 3 C-0.61875 3.04125 -1.2375 3.0825 -1.875 3.125 C-2.57625 3.41375 -3.2775 3.7025 -4 4 C-5.15835673 6.97503122 -5.15835673 6.97503122 -6 10 C-6.99 10.495 -6.99 10.495 -8 11 C-8.5 8.3125 -8.5 8.3125 -8 5 C-5.54759163 2.91867974 -2.8646211 1.44509904 0 0 Z " fill="#196567" transform="translate(243,169)"/>
<path d="M0 0 C-4.95 2.97 -4.95 2.97 -10 6 C-10 3 -10 3 -8 1 C-2.41860465 -1.20930233 -2.41860465 -1.20930233 0 0 Z " fill="#1A6462" transform="translate(507,581)"/>
<path d="M0 0 C0.66 0 1.32 0 2 0 C2 0.99 2 1.98 2 3 C3.65 3.33 5.3 3.66 7 4 C6.67 5.98 6.34 7.96 6 10 C3.25722422 6.80009492 1.3697164 3.99500618 0 0 Z " fill="#1A6560" transform="translate(167,502)"/>
<path d="M0 0 C2.39489543 0.74324341 3.70777616 1.47057354 4.93359375 3.69140625 C5.67219923 5.44073501 6.34049685 7.21934149 7 9 C6.01 9 5.02 9 4 9 C0 2.25 0 2.25 0 0 Z " fill="#1A6362" transform="translate(161,492)"/>
<path d="M0 0 C0.66 0 1.32 0 2 0 C2 3.3 2 6.6 2 10 C-1 7 -1 7 -1.25 3.875 C-1 1 -1 1 0 0 Z " fill="#1B6463" transform="translate(429,483)"/>
<path d="M0 0 C0.99 0.99 1.98 1.98 3 3 C-1.39453125 7.00390625 -1.39453125 7.00390625 -3 8 C-3.99 7.67 -4.98 7.34 -6 7 C-4.02 4.69 -2.04 2.38 0 0 Z " fill="#196266" transform="translate(395,356)"/>
<path d="M0 0 C0 0.33 0 0.66 0 1 C-0.59167969 1.09796875 -1.18335938 1.1959375 -1.79296875 1.296875 C-6.87042139 2.25769801 -10.17513744 3.2985201 -14 7 C-13.70049983 4.1048317 -13.19065168 3.16176506 -10.9375 1.25 C-7.04258936 -0.40740878 -4.21124039 -0.21413087 0 0 Z " fill="#1B6260" transform="translate(198,271)"/>
<path d="M0 0 C2.6875 -0.3125 2.6875 -0.3125 6 0 C8.875 2.5 8.875 2.5 11 5 C10.01 5.495 10.01 5.495 9 6 C6.8359375 5.00390625 6.8359375 5.00390625 4.375 3.5625 C3.55773437 3.08941406 2.74046875 2.61632812 1.8984375 2.12890625 C1.27195312 1.75636719 0.64546875 1.38382813 0 1 C0 0.67 0 0.34 0 0 Z " fill="#1E6162" transform="translate(414,250)"/>
<path d="M0 0 C0.66 0 1.32 0 2 0 C5 3.46153846 5 3.46153846 5 6 C6.65 6.33 8.3 6.66 10 7 C9.67 7.66 9.34 8.32 9 9 C6.48717169 8.61341103 5.27457658 8.29480854 3.515625 6.40625 C3.09796875 5.7771875 2.6803125 5.148125 2.25 4.5 C1.82203125 3.8709375 1.3940625 3.241875 0.953125 2.59375 C0 1 0 1 0 0 Z " fill="#156260" transform="translate(243,236)"/>
<path d="M0 0 C0.33 0 0.66 0 1 0 C0.88490339 1.41750563 0.75746342 2.83401169 0.625 4.25 C0.55539062 5.03890625 0.48578125 5.8278125 0.4140625 6.640625 C0 9 0 9 -2 13 C-2 9.7 -2 6.4 -2 3 C-1.34 3 -0.68 3 0 3 C0 2.01 0 1.02 0 0 Z " fill="#1D6561" transform="translate(613,423)"/>
<path d="M0 0 C0.66 0 1.32 0 2 0 C0.515 6.435 0.515 6.435 -1 13 C-1.33 13 -1.66 13 -2 13 C-2.33 10.03 -2.66 7.06 -3 4 C-2.01 3.67 -1.02 3.34 0 3 C0 2.01 0 1.02 0 0 Z " fill="#1B6261" transform="translate(355,336)"/>
<path d="M0 0 C0.66 0.33 1.32 0.66 2 1 C0.71264403 3.57471193 -0.28489811 3.70416657 -2.9375 4.6875 C-3.64777344 4.95949219 -4.35804688 5.23148437 -5.08984375 5.51171875 C-7 6 -7 6 -9 5 C-7.54735962 4.1361871 -6.0876837 3.28419546 -4.625 2.4375 C-3.40683594 1.72400391 -3.40683594 1.72400391 -2.1640625 0.99609375 C-1.44992187 0.66738281 -0.73578125 0.33867187 0 0 Z " fill="#1B6462" transform="translate(571,294)"/>
<path d="M0 0 C0.99 0.33 1.98 0.66 3 1 C3 2.32 3 3.64 3 5 C1.35 4.67 -0.3 4.34 -2 4 C-2 3.01 -2 2.02 -2 1 C-1.34 0.67 -0.68 0.34 0 0 Z " fill="#24605E" transform="translate(400,286)"/>
<path d="M0 0 C3.96 1.98 3.96 1.98 8 4 C6.68 4.99 5.36 5.98 4 7 C3.896875 6.360625 3.79375 5.72125 3.6875 5.0625 C3.460625 4.381875 3.23375 3.70125 3 3 C2.01 2.67 1.02 2.34 0 2 C0 1.34 0 0.68 0 0 Z " fill="#1B6466" transform="translate(227,248)"/>
<path d="M0 0 C3.63 0.66 7.26 1.32 11 2 C11 2.33 11 2.66 11 3 C7.7 3 4.4 3 1 3 C0.67 2.01 0.34 1.02 0 0 Z " fill="#19635D" transform="translate(343,322)"/>
<path d="M0 0 C-6 4 -6 4 -10 4 C-9.67 3.01 -9.34 2.02 -9 1 C-5.8035914 -0.06546953 -3.34252724 -0.07427838 0 0 Z " fill="#1E6265" transform="translate(307,267)"/>
<path d="M0 0 C1.4540625 0.0309375 1.4540625 0.0309375 2.9375 0.0625 C2.9375 1.0525 2.9375 2.0425 2.9375 3.0625 C2.36 2.815 1.7825 2.5675 1.1875 2.3125 C0.445 2.23 -0.2975 2.1475 -1.0625 2.0625 C-3.33394074 3.91682087 -3.33394074 3.91682087 -5.0625 6.0625 C-3.98897059 0.08140756 -3.98897059 0.08140756 0 0 Z " fill="#165657" transform="translate(201.0625,251.9375)"/>
<path d="M0 0 C0 0.66 0 1.32 0 2 C-4.455 3.485 -4.455 3.485 -9 5 C-8.67 4.01 -8.34 3.02 -8 2 C-5.10441559 0.5522078 -3.25811062 0 0 0 Z " fill="#1D6461" transform="translate(478,595)"/>
<path d="M0 0 C-1.670625 0.433125 -1.670625 0.433125 -3.375 0.875 C-7.00291092 1.69241329 -7.00291092 1.69241329 -9 4 C-9.66 3.67 -10.32 3.34 -11 3 C-11 2.34 -11 1.68 -11 1 C-3.57142857 -1.42857143 -3.57142857 -1.42857143 0 0 Z " fill="#1D6460" transform="translate(396,326)"/>
<path d="M0 0 C1.32 0.66 2.64 1.32 4 2 C3.67 3.65 3.34 5.3 3 7 C1.68 7 0.36 7 -1 7 C-0.67 4.69 -0.34 2.38 0 0 Z " fill="#13615F" transform="translate(217,289)"/>
<path d="M0 0 C1.32 0.33 2.64 0.66 4 1 C1.36 2.98 -1.28 4.96 -4 7 C-3.6875 4.625 -3.6875 4.625 -3 2 C-2.01 1.34 -1.02 0.68 0 0 Z " fill="#196560" transform="translate(333,290)"/>
<path d="M0 0 C0.99 0.33 1.98 0.66 3 1 C3 2.32 3 3.64 3 5 C1.68 5 0.36 5 -1 5 C-1.33 4.01 -1.66 3.02 -2 2 C-1.34 1.34 -0.68 0.68 0 0 Z " fill="#1C6460" transform="translate(347,286)"/>
<path d="M0 0 C3.73487777 0.4979837 5.81237635 0.87491756 9 3 C9 3.66 9 4.32 9 5 C5.22454612 3.90931332 2.52956528 3.0916909 0 0 Z " fill="#1C6162" transform="translate(431,260)"/>
<path d="M0 0 C0.33 0.99 0.66 1.98 1 3 C-0.98 3.66 -2.96 4.32 -5 5 C-5.66 4.34 -6.32 3.68 -7 3 C-2.25 0 -2.25 0 0 0 Z " fill="#176565" transform="translate(258,161)"/>
<path d="M0 0 C1.98 0 3.96 0 6 0 C6 1.65 6 3.3 6 5 C5.67 4.34 5.34 3.68 5 3 C2.47266765 2.34444881 2.47266765 2.34444881 0 2 C0 1.34 0 0.68 0 0 Z " fill="#1A6463" transform="translate(502,491)"/>
<path d="M0 0 C0.99 0.66 1.98 1.32 3 2 C1.625 4.5 1.625 4.5 0 7 C-0.66 7 -1.32 7 -2 7 C-2.125 4.625 -2.125 4.625 -2 2 C-1.34 1.34 -0.68 0.68 0 0 Z " fill="#076263" transform="translate(420,486)"/>
<path d="M0 0 C0.66 0.33 1.32 0.66 2 1 C1.01 3.31 0.02 5.62 -1 8 C-1.33 7.01 -1.66 6.02 -2 5 C-2.66 4.67 -3.32 4.34 -4 4 C-3.34 4 -2.68 4 -2 4 C-2 3.01 -2 2.02 -2 1 C-1.34 0.67 -0.68 0.34 0 0 Z " fill="#166364" transform="translate(366,413)"/>
<path d="M0 0 C0.99 0 1.98 0 3 0 C2.34 1.98 1.68 3.96 1 6 C-0.32 5.34 -1.64 4.68 -3 4 C-2.34 3.34 -1.68 2.68 -1 2 C-0.67 1.34 -0.34 0.68 0 0 Z " fill="#186467" transform="translate(197,300)"/>
<path d="M0 0 C6.93 0.495 6.93 0.495 14 1 C14 1.33 14 1.66 14 2 C12.04235617 2.19456705 10.08384679 2.38044247 8.125 2.5625 C7.03445313 2.66691406 5.94390625 2.77132813 4.8203125 2.87890625 C2 3 2 3 0 2 C0 1.34 0 0.68 0 0 Z " fill="#1E6362" transform="translate(280,276)"/>
<path d="M0 0 C3.99500618 1.3697164 6.80009492 3.25722422 10 6 C6.36672806 6 4.95264073 5.04413589 2 3 C1.34 2.01 0.68 1.02 0 0 Z " fill="#18615C" transform="translate(198,260)"/>
<path d="M0 0 C1.65 0 3.3 0 5 0 C5.33 0.99 5.66 1.98 6 3 C6.99 3.66 7.98 4.32 9 5 C8.01 5.495 8.01 5.495 7 6 C5.83054208 5.19152271 4.66449539 4.37810888 3.5 3.5625 C2.8503125 3.11003906 2.200625 2.65757812 1.53125 2.19140625 C1.0259375 1.79824219 0.520625 1.40507813 0 1 C0 0.67 0 0.34 0 0 Z " fill="#1A5B59" transform="translate(223,566)"/>
<path d="M0 0 C0 1.65 0 3.3 0 5 C-1.98 5.33 -3.96 5.66 -6 6 C-6 5.34 -6 4.68 -6 4 C-1.41176471 0 -1.41176471 0 0 0 Z " fill="#1A6566" transform="translate(508,484)"/>
<path d="M0 0 C2.56616632 3.84924948 2.55097676 6.4349304 3 11 C1 10 1 10 -0.1875 6.625 C-1 3 -1 3 0 0 Z " fill="#216467" transform="translate(254,230)"/>
<path d="M0 0 C-0.33 0.99 -0.66 1.98 -1 3 C-1.99 3 -2.98 3 -4 3 C-4 3.66 -4 4.32 -4 5 C-5.65 5.33 -7.3 5.66 -9 6 C-3.2 0 -3.2 0 0 0 Z " fill="#1F6365" transform="translate(274,222)"/>
<path d="M0 0 C0.99 0 1.98 0 3 0 C3 0.99 3 1.98 3 3 C2.34 3 1.68 3 1 3 C0.67 3.99 0.34 4.98 0 6 C-0.66 5.67 -1.32 5.34 -2 5 C-1.34 3.35 -0.68 1.7 0 0 Z " fill="#125C5B" transform="translate(506,222)"/>
</svg>
